%FSLAX24Y24*%
%MOIN*%
%ADD10C,0.01389*%
%ADD11C,0.01000*%
%ADD12C,0.05000*%
%ADD13C,0.05003*%
%ADD14C,0.05001*%
%ADD15C,0.04500*%
%ADD16C,0.09500*%
%ADD17C,0.04999*%
%ADD18C,0.08471*%
%ADD19C,0.08469*%
%ADD20C,0.12992*%
%ADD21C,0.12989*%
%ADD22C,0.12990*%
G01*
G54D10*
G54D11*
X008970Y070162D02*
X009375Y070162D01*
X009375Y066169D01*
X012778Y066169D01*
X012778Y072176D01*
X011979Y072176D01*
X008970Y072188D02*
X009769Y072188D01*
X009769Y066586D01*
X012373Y066586D01*
X012373Y070174D01*
X011945Y070174D01*
X008982Y074167D02*
X010174Y074167D01*
X010174Y068183D01*
X011586Y068183D01*
X008611Y068171D02*
X008160Y068171D01*
X008160Y065776D01*
X013183Y065776D01*
X013183Y074167D01*
X011956Y074167D01*
X011586Y074167D02*
X011291Y074167D01*
X011291Y076783D01*
X013982Y076783D01*
X013982Y068160D01*
X015590Y068160D01*
X011597Y072153D02*
X010972Y072153D01*
X010972Y077188D01*
X014375Y077188D01*
X014375Y070174D01*
X015590Y070174D01*
X011574Y070174D02*
X010567Y070174D01*
X010567Y077569D01*
X014780Y077569D01*
X014780Y072164D01*
X015602Y072164D01*
X010174Y074167D02*
X010174Y077963D01*
X015185Y077963D01*
X015185Y074167D01*
X015567Y074167D01*
X015970Y070162D02*
X016375Y070162D01*
X016375Y066169D01*
X019778Y066169D01*
X019778Y072176D01*
X018979Y072176D01*
X015970Y072188D02*
X016768Y072188D01*
X016768Y066586D01*
X019372Y066586D01*
X019372Y070174D01*
X018944Y070174D01*
X015981Y074167D02*
X017173Y074167D01*
X017173Y068183D01*
X018585Y068183D01*
X018956Y074167D02*
X020183Y074167D01*
X020183Y065776D01*
X015160Y065776D01*
X015160Y068148D01*
X018585Y074167D02*
X018308Y074167D01*
X018308Y076783D01*
X020981Y076783D01*
X020981Y068160D01*
X022590Y068160D01*
X018597Y072153D02*
X017972Y072153D01*
X017972Y077188D01*
X021375Y077188D01*
X021375Y070174D01*
X022590Y070174D01*
X018574Y070174D02*
X017567Y070174D01*
X017567Y077569D01*
X021780Y077569D01*
X021780Y072164D01*
X022602Y072164D01*
X017173Y074167D02*
X017173Y077963D01*
X022185Y077963D01*
X022185Y074167D01*
X022567Y074167D01*
X022969Y070162D02*
X023375Y070162D01*
X023375Y066169D01*
X026777Y066169D01*
X026777Y072176D01*
X025979Y072176D01*
X022969Y072188D02*
X023768Y072188D01*
X023768Y066586D01*
X026372Y066586D01*
X026372Y070174D01*
X025944Y070174D01*
X025955Y074167D02*
X027182Y074167D01*
X027182Y065776D01*
X022159Y065776D01*
X022159Y068148D01*
X025585Y074167D02*
X025282Y074167D01*
X025282Y077570D01*
X035776Y077570D01*
X035776Y072787D01*
X037934Y072787D01*
X025597Y072153D02*
X024972Y072153D01*
X024972Y077963D01*
X036181Y077963D01*
X036181Y073275D01*
X037604Y073275D01*
X025574Y070174D02*
X024567Y070174D01*
X024567Y078368D01*
X036574Y078368D01*
X036574Y073776D01*
X037925Y073776D01*
X022963Y074167D02*
X024173Y074167D01*
X024173Y078762D01*
X036979Y078762D01*
X036979Y074274D01*
X037593Y074274D01*
X024173Y074167D02*
X024173Y068160D01*
X025590Y068160D01*
X032975Y072164D02*
X033380Y072164D01*
X033380Y073649D01*
X031181Y073649D01*
X031181Y064977D01*
X029167Y064965D01*
X013565Y064965D01*
X013565Y075162D01*
X011979Y075162D01*
X032975Y070174D02*
X033785Y070174D01*
X033785Y074783D01*
X030776Y074783D01*
X030776Y065370D01*
X028773Y065359D01*
X020567Y065359D01*
X020567Y075185D01*
X018970Y075185D01*
X032998Y068171D02*
X034178Y068171D01*
X034178Y075150D01*
X030370Y075150D01*
X030370Y065764D01*
X027593Y065764D01*
X027593Y075185D01*
X025972Y075185D01*
X032616Y073171D02*
X031563Y073171D01*
X031563Y064572D01*
X007766Y064572D01*
X007766Y076181D01*
X008576Y076181D01*
X032593Y071157D02*
X031956Y071157D01*
X031956Y064178D01*
X007384Y064178D01*
X007384Y078368D01*
X015764Y078368D01*
X015764Y076354D01*
X032593Y069178D02*
X032350Y069178D01*
X032350Y063773D01*
X006956Y063773D01*
X006956Y078773D01*
X022778Y078773D01*
X022778Y076308D01*
X029602Y072164D02*
X028183Y072164D01*
X028183Y077176D01*
X035370Y077176D01*
X035370Y072277D01*
X037616Y072277D01*
X029607Y073160D02*
X028588Y073160D01*
X028588Y076759D01*
X034977Y076759D01*
X034977Y071777D01*
X037917Y071777D01*
X029607Y074167D02*
X028970Y074167D01*
X028970Y076377D01*
X034572Y076377D01*
X034572Y071282D01*
X037578Y071285D01*
X011597Y059167D02*
X011172Y059167D01*
X011172Y055660D01*
X015373Y055660D01*
X015373Y057205D01*
X015573Y057205D01*
X018597Y059167D02*
X018172Y059167D01*
X018172Y055663D01*
X022373Y055663D01*
X022373Y057205D01*
X022573Y057205D01*
X018779Y037344D02*
X026701Y037344D01*
X034697Y048333D01*
X034699Y070781D01*
X037934Y070781D01*
X016771Y040972D02*
X016771Y040165D01*
X022769Y040165D01*
X022769Y037352D01*
X020775Y040995D02*
X020775Y040174D01*
X018773Y037963D02*
X018773Y037361D01*
X008611Y057188D02*
X008264Y057188D01*
X008264Y053588D01*
X030967Y053588D01*
X030967Y060440D01*
X029861Y060440D01*
G54D12*
X015958Y058168D02*
X016774Y058168D01*
X016774Y061172D01*
X019769Y061172D01*
X019769Y056172D01*
X018970Y056172D01*
X022958Y058168D02*
X023774Y058168D01*
X023774Y061172D01*
X026769Y061172D01*
X026769Y056172D01*
X025970Y056172D01*
X008773Y054167D02*
X011782Y054167D01*
X011782Y055168D01*
X010573Y055168D01*
X010573Y060168D01*
X011603Y060168D01*
X015787Y054167D02*
X018782Y054167D01*
X018782Y055168D01*
X017573Y055168D01*
X017573Y060168D01*
X018603Y060168D01*
X022801Y054167D02*
X025782Y054167D01*
X025782Y055168D01*
X024572Y055168D01*
X024572Y060168D01*
X025602Y060168D01*
X011782Y054167D02*
X015773Y054167D01*
X018782Y054167D02*
X022769Y054167D01*
X015773Y058168D02*
X012821Y058168D01*
X022778Y058168D02*
X019848Y058168D01*
X011970Y046169D02*
X012769Y046169D01*
X012769Y051171D01*
X009774Y051171D01*
X009774Y048166D01*
X008958Y048166D01*
X007616Y048166D01*
X007616Y058171D01*
X008958Y058168D01*
X009774Y058168D01*
X009774Y061172D01*
X012769Y061172D01*
X012769Y056172D01*
X011970Y056172D01*
X015958Y048166D02*
X016774Y048166D01*
X016774Y051171D01*
X019769Y051171D01*
X019769Y046169D01*
X018970Y046169D01*
X022958Y048166D02*
X023774Y048166D01*
X023774Y051171D01*
X026769Y051171D01*
X026769Y046169D01*
X025970Y046169D01*
X015773Y048166D02*
X012821Y048166D01*
X022778Y048166D02*
X019848Y048166D01*
X015775Y061181D02*
X015775Y062130D01*
X022766Y061181D02*
X022766Y062130D01*
X015970Y044164D02*
X018782Y044164D01*
X018782Y045165D01*
X017573Y045165D01*
X017573Y050166D01*
X018603Y050166D01*
X022969Y044164D02*
X025782Y044164D01*
X025782Y045165D01*
X024572Y045165D01*
X024572Y050166D01*
X025602Y050166D01*
X011782Y044164D02*
X015773Y044164D01*
X018782Y044164D02*
X022769Y044164D01*
X025782Y054167D02*
X028174Y054167D01*
X028174Y062170D01*
X005764Y062170D01*
X005781Y044167D01*
X008970Y044164D01*
X011782Y044164D01*
X011782Y045165D01*
X010573Y045165D01*
X010573Y050166D01*
X011603Y050166D01*
X025782Y044164D02*
X027769Y044164D01*
X027778Y052291D01*
X008785Y052274D01*
X008785Y051146D01*
X015775Y051163D02*
X015775Y052274D01*
X022766Y051181D02*
X022766Y052257D01*
X008776Y061198D02*
X008776Y062130D01*
X007720Y053050D02*
X028773Y053050D01*
X028773Y042176D01*
X015781Y042176D01*
X015781Y040174D01*
X006771Y040174D01*
X006771Y042274D01*
X005781Y044167D02*
X005781Y039167D01*
X021771Y039167D01*
X021771Y038264D01*
X012766Y038264D02*
X012766Y039051D01*
X029792Y054167D02*
X028073Y054167D01*
G54D11*
X029815Y055116D02*
X028814Y055116D01*
X028814Y063033D01*
X029913Y063033D01*
X029815Y056128D02*
X029195Y056128D01*
X029195Y061742D01*
X029896Y061742D01*
G54D12*
X028785Y053050D02*
X031806Y053050D01*
X031806Y055162D01*
X032787Y055165D01*
X015810Y042188D02*
X014005Y042188D01*
X005764Y062170D02*
X005764Y079253D01*
X010694Y081279D01*
X027674Y081279D01*
X027674Y080544D01*
X015775Y038171D02*
X015775Y039143D01*
X016782Y038171D02*
X016782Y039132D01*
X006780Y038177D02*
X006780Y039086D01*
X007786Y038186D02*
X007786Y039115D01*
X009030Y076167D02*
G54D12*
X008780Y076167D03*
G54D12*
X008898Y076167D02*
X009030Y075167D02*
G54D12*
X008780Y075167D03*
G54D12*
X008898Y075167D02*
X012030Y075167D02*
G54D12*
X011780Y075167D03*
G54D12*
X011898Y075167D02*
X009030Y074167D02*
G54D12*
X008780Y074167D03*
G54D12*
X008898Y074167D02*
X012030Y074167D02*
G54D12*
X011780Y074167D03*
G54D12*
X011898Y074167D02*
X009030Y073167D02*
G54D12*
X008780Y073167D03*
G54D12*
X008898Y073167D02*
X012030Y073167D02*
G54D12*
X011780Y073167D03*
G54D12*
X011898Y073167D02*
X009030Y072167D02*
G54D12*
X008780Y072167D03*
G54D12*
X008898Y072167D02*
X012030Y072167D02*
G54D12*
X011780Y072167D03*
G54D12*
X011898Y072167D02*
X009030Y071167D02*
G54D12*
X008780Y071167D03*
G54D12*
X008898Y071167D02*
X012030Y071167D02*
G54D12*
X011780Y071167D03*
G54D12*
X011898Y071167D02*
X009030Y070167D02*
G54D12*
X008780Y070167D03*
G54D12*
X008898Y070167D02*
X012030Y070167D02*
G54D12*
X011780Y070167D03*
G54D12*
X011898Y070167D02*
X009030Y069167D02*
G54D12*
X008780Y069167D03*
G54D12*
X008898Y069167D02*
X012030Y069167D02*
G54D12*
X011780Y069167D03*
G54D12*
X011898Y069167D02*
X009030Y068167D02*
G54D12*
X008780Y068167D03*
G54D12*
X008898Y068167D02*
X012030Y068167D02*
G54D12*
X011780Y068167D03*
G54D12*
X011898Y068167D02*
X009030Y067167D02*
G54D12*
X008780Y067167D03*
G54D12*
X008898Y067167D02*
X012030Y067167D02*
G54D12*
X011780Y067167D03*
G54D12*
X011898Y067167D02*
X009030Y061167D02*
G54D12*
X008780Y061167D03*
G54D12*
X008898Y061167D02*
X012030Y061167D02*
G54D12*
X011780Y061167D03*
G54D12*
X011898Y061167D02*
X009030Y060167D02*
G54D12*
X008780Y060167D03*
G54D12*
X008898Y060167D02*
X012030Y060167D02*
G54D12*
X011780Y060167D03*
G54D12*
X011898Y060167D02*
X009030Y059167D02*
G54D12*
X008780Y059167D03*
G54D12*
X008898Y059167D02*
X012030Y059167D02*
G54D12*
X011780Y059167D03*
G54D12*
X011898Y059167D02*
X009030Y058167D02*
G54D12*
X008780Y058167D03*
G54D12*
X008898Y058167D02*
X012030Y058167D02*
G54D12*
X011780Y058167D03*
G54D12*
X011898Y058167D02*
X009030Y057167D02*
G54D12*
X008780Y057167D03*
G54D12*
X008898Y057167D02*
X012030Y057167D02*
G54D12*
X011780Y057167D03*
G54D12*
X011898Y057167D02*
X009030Y056167D02*
G54D13*
X008780Y056167D03*
G54D12*
X008898Y056167D02*
X012030Y056167D02*
G54D13*
X011780Y056167D03*
G54D12*
X011898Y056167D02*
X009030Y055167D02*
G54D13*
X008780Y055167D03*
G54D12*
X008898Y055167D02*
X012030Y055167D02*
G54D13*
X011780Y055167D03*
G54D12*
X011898Y055167D02*
X009030Y054167D02*
G54D13*
X008780Y054167D03*
G54D12*
X008898Y054167D02*
X012030Y054167D02*
G54D13*
X011780Y054167D03*
G54D12*
X011898Y054167D02*
X009030Y051166D02*
G54D13*
X008780Y051166D03*
G54D12*
X008898Y051166D02*
X012030Y051166D02*
G54D13*
X011780Y051166D03*
G54D12*
X011898Y051166D02*
X013024Y050523D02*
G54D13*
X012774Y050523D03*
G54D12*
X012892Y050523D02*
X012954Y052277D02*
G54D13*
X012704Y052277D03*
G54D12*
X012822Y052277D02*
X013041Y060558D02*
G54D13*
X012791Y060558D03*
G54D12*
X012909Y060558D02*
X012954Y062173D02*
G54D13*
X012704Y062173D03*
G54D12*
X012822Y062173D02*
X020003Y060541D02*
G54D13*
X019753Y060541D03*
G54D12*
X019871Y060541D02*
X020003Y062173D02*
G54D13*
X019753Y062173D03*
G54D12*
X019871Y062173D02*
X027034Y060506D02*
G54D13*
X026784Y060506D03*
G54D12*
X026902Y060506D02*
X027017Y062155D02*
G54D13*
X026767Y062155D03*
G54D12*
X026885Y062155D02*
X020026Y050558D02*
G54D13*
X019776Y050558D03*
G54D12*
X019894Y050558D02*
X020026Y052277D02*
G54D13*
X019776Y052277D03*
G54D12*
X019894Y052277D02*
X027022Y050518D02*
G54D13*
X026773Y050518D03*
G54D12*
X026891Y050518D02*
X027005Y052288D02*
G54D13*
X026755Y052288D03*
G54D12*
X026873Y052288D02*
X009030Y050165D02*
G54D13*
X008780Y050165D03*
G54D12*
X008898Y050165D02*
X012030Y050165D02*
G54D13*
X011780Y050165D03*
G54D12*
X011898Y050165D02*
X009030Y049165D02*
G54D13*
X008780Y049165D03*
G54D12*
X008898Y049165D02*
X012030Y049165D02*
G54D13*
X011780Y049165D03*
G54D12*
X011898Y049165D02*
X009030Y048165D02*
G54D13*
X008780Y048165D03*
G54D12*
X008898Y048165D02*
X012030Y048165D02*
G54D13*
X011780Y048165D03*
G54D12*
X011898Y048165D02*
X009030Y047165D02*
G54D13*
X008780Y047164D03*
G54D12*
X008898Y047165D02*
X012030Y047165D02*
G54D13*
X011780Y047164D03*
G54D12*
X011898Y047165D02*
X009030Y046164D02*
G54D13*
X008780Y046164D03*
G54D12*
X008898Y046164D02*
X012030Y046164D02*
G54D13*
X011780Y046164D03*
G54D12*
X011898Y046164D02*
X009030Y045164D02*
G54D13*
X008780Y045164D03*
G54D12*
X008898Y045164D02*
X012030Y045164D02*
G54D13*
X011780Y045164D03*
G54D12*
X011898Y045164D02*
X012784Y040912D02*
G54D12*
X012784Y041162D03*
G54D12*
X012784Y041043D02*
X012784Y037912D02*
G54D14*
X012784Y038162D03*
G54D12*
X012784Y038043D02*
X011784Y040912D02*
G54D12*
X011783Y041162D03*
G54D12*
X011784Y041043D02*
X011784Y037912D02*
G54D14*
X011783Y038162D03*
G54D12*
X011784Y038043D02*
X010783Y040912D02*
G54D12*
X010783Y041162D03*
G54D12*
X010783Y041043D02*
X010783Y037912D02*
G54D14*
X010783Y038162D03*
G54D12*
X010783Y038043D02*
X009783Y040912D02*
G54D12*
X009783Y041162D03*
G54D12*
X009783Y041043D02*
X009783Y037912D02*
G54D14*
X009783Y038162D03*
G54D12*
X009783Y038043D02*
X008783Y040912D02*
G54D12*
X008782Y041162D03*
G54D12*
X008783Y041043D02*
X008783Y037912D02*
G54D14*
X008783Y038162D03*
G54D12*
X008783Y038043D02*
X007782Y040912D02*
G54D12*
X007782Y041162D03*
G54D12*
X007782Y041043D02*
X007782Y037912D02*
G54D14*
X007782Y038162D03*
G54D12*
X007782Y038043D02*
X006782Y040912D02*
G54D12*
X006782Y041162D03*
G54D12*
X006782Y041043D02*
X006773Y042023D02*
G54D12*
X006773Y042273D03*
G54D12*
X006773Y042154D02*
X006782Y043906D02*
G54D12*
X006782Y044156D03*
G54D12*
X006782Y044038D02*
X006782Y037912D02*
G54D14*
X006782Y038162D03*
G54D12*
X006782Y038043D02*
X021784Y040912D02*
G54D12*
X021783Y041162D03*
G54D12*
X021784Y041043D02*
X021784Y037912D02*
G54D14*
X021783Y038162D03*
G54D12*
X021784Y038043D02*
X020783Y040912D02*
G54D12*
X020783Y041162D03*
G54D12*
X020783Y041043D02*
X020783Y037912D02*
G54D14*
X020783Y038162D03*
G54D12*
X020783Y038043D02*
X019783Y040912D02*
G54D12*
X019783Y041162D03*
G54D12*
X019783Y041043D02*
X019783Y037912D02*
G54D14*
X019783Y038162D03*
G54D12*
X019783Y038043D02*
X018783Y040912D02*
G54D12*
X018782Y041162D03*
G54D12*
X018783Y041043D02*
X018783Y037912D02*
G54D14*
X018782Y038162D03*
G54D12*
X018783Y038043D02*
X017782Y040912D02*
G54D12*
X017782Y041162D03*
G54D12*
X017782Y041043D02*
X017782Y037912D02*
G54D14*
X017782Y038162D03*
G54D12*
X017782Y038043D02*
X016782Y040912D02*
G54D12*
X016782Y041162D03*
G54D12*
X016782Y041043D02*
X016782Y037912D02*
G54D14*
X016782Y038162D03*
G54D12*
X016782Y038043D02*
X015782Y040912D02*
G54D12*
X015782Y041162D03*
G54D12*
X015782Y041043D02*
X014022Y041942D02*
G54D12*
X014022Y042192D03*
G54D12*
X014022Y042073D02*
X013988Y043909D02*
G54D12*
X013987Y044159D03*
G54D12*
X013988Y044041D02*
X015782Y037912D02*
G54D14*
X015782Y038162D03*
G54D12*
X015782Y038043D02*
X009030Y044164D02*
G54D13*
X008780Y044164D03*
G54D12*
X008898Y044164D02*
X012030Y044164D02*
G54D13*
X011780Y044164D03*
G54D12*
X011898Y044164D02*
X016030Y061167D02*
G54D12*
X015780Y061167D03*
G54D12*
X015898Y061167D02*
X019030Y061167D02*
G54D12*
X018780Y061167D03*
G54D12*
X018898Y061167D02*
X016030Y060167D02*
G54D12*
X015780Y060167D03*
G54D12*
X015898Y060167D02*
X019030Y060167D02*
G54D12*
X018780Y060167D03*
G54D12*
X018898Y060167D02*
X016030Y059167D02*
G54D12*
X015780Y059167D03*
G54D12*
X015898Y059167D02*
X019030Y059167D02*
G54D12*
X018780Y059167D03*
G54D12*
X018898Y059167D02*
X016030Y058167D02*
G54D12*
X015780Y058167D03*
G54D12*
X015898Y058167D02*
X019030Y058167D02*
G54D12*
X018780Y058167D03*
G54D12*
X018898Y058167D02*
X016030Y057167D02*
G54D12*
X015780Y057167D03*
G54D12*
X015898Y057167D02*
X019030Y057167D02*
G54D12*
X018780Y057167D03*
G54D12*
X018898Y057167D02*
X016030Y056167D02*
G54D13*
X015780Y056167D03*
G54D12*
X015898Y056167D02*
X019030Y056167D02*
G54D13*
X018780Y056167D03*
G54D12*
X018898Y056167D02*
X016030Y055167D02*
G54D13*
X015780Y055167D03*
G54D12*
X015898Y055167D02*
X019030Y055167D02*
G54D13*
X018780Y055167D03*
G54D12*
X018898Y055167D02*
X016030Y054167D02*
G54D13*
X015780Y054167D03*
G54D12*
X015898Y054167D02*
X019030Y054167D02*
G54D13*
X018780Y054167D03*
G54D12*
X018898Y054167D02*
X016030Y051166D02*
G54D13*
X015780Y051166D03*
G54D12*
X015898Y051166D02*
X015465Y052286D02*
G54D13*
X015215Y052285D03*
G54D12*
X015333Y052286D02*
X016464Y053049D02*
G54D13*
X016215Y053049D03*
G54D12*
X016333Y053049D02*
X019030Y051166D02*
G54D13*
X018780Y051166D03*
G54D12*
X018898Y051166D02*
X016030Y050165D02*
G54D13*
X015780Y050165D03*
G54D12*
X015898Y050165D02*
X019030Y050165D02*
G54D13*
X018780Y050165D03*
G54D12*
X018898Y050165D02*
X016030Y049165D02*
G54D13*
X015780Y049165D03*
G54D12*
X015898Y049165D02*
X019030Y049165D02*
G54D13*
X018780Y049165D03*
G54D12*
X018898Y049165D02*
X016030Y048165D02*
G54D13*
X015780Y048165D03*
G54D12*
X015898Y048165D02*
X019030Y048165D02*
G54D13*
X018780Y048165D03*
G54D12*
X018898Y048165D02*
X016030Y047165D02*
G54D13*
X015780Y047164D03*
G54D12*
X015898Y047165D02*
X019030Y047165D02*
G54D13*
X018780Y047164D03*
G54D12*
X018898Y047165D02*
X016030Y046164D02*
G54D13*
X015780Y046164D03*
G54D12*
X015898Y046164D02*
X019030Y046164D02*
G54D13*
X018780Y046164D03*
G54D12*
X018898Y046164D02*
X016030Y045164D02*
G54D13*
X015780Y045164D03*
G54D12*
X015898Y045164D02*
X019030Y045164D02*
G54D13*
X018780Y045164D03*
G54D12*
X018898Y045164D02*
X016030Y044164D02*
G54D13*
X015780Y044164D03*
G54D12*
X015898Y044164D02*
X019030Y044164D02*
G54D13*
X018780Y044164D03*
G54D12*
X018898Y044164D02*
X023029Y061167D02*
G54D12*
X022779Y061167D03*
G54D12*
X022898Y061167D02*
X026029Y061167D02*
G54D12*
X025779Y061167D03*
G54D12*
X025898Y061167D02*
X023029Y060167D02*
G54D12*
X022779Y060167D03*
G54D12*
X022898Y060167D02*
X026029Y060167D02*
G54D12*
X025779Y060167D03*
G54D12*
X025898Y060167D02*
X023029Y059167D02*
G54D12*
X022779Y059167D03*
G54D12*
X022898Y059167D02*
X026029Y059167D02*
G54D12*
X025779Y059167D03*
G54D12*
X025898Y059167D02*
X023029Y058167D02*
G54D12*
X022779Y058167D03*
G54D12*
X022898Y058167D02*
X026029Y058167D02*
G54D12*
X025779Y058167D03*
G54D12*
X025898Y058167D02*
X023029Y057167D02*
G54D12*
X022779Y057167D03*
G54D12*
X022898Y057167D02*
X026029Y057167D02*
G54D12*
X025779Y057167D03*
G54D12*
X025898Y057167D02*
X023029Y056167D02*
G54D13*
X022780Y056167D03*
G54D12*
X022898Y056167D02*
X026029Y056167D02*
G54D13*
X025779Y056167D03*
G54D12*
X025898Y056167D02*
X023029Y055167D02*
G54D13*
X022780Y055167D03*
G54D12*
X022898Y055167D02*
X026029Y055167D02*
G54D13*
X025779Y055167D03*
G54D12*
X025898Y055167D02*
X023029Y054167D02*
G54D13*
X022780Y054167D03*
G54D12*
X022898Y054167D02*
X026029Y054167D02*
G54D13*
X025779Y054167D03*
G54D12*
X025898Y054167D02*
X023029Y051166D02*
G54D13*
X022780Y051166D03*
G54D12*
X022898Y051166D02*
X026029Y051166D02*
G54D13*
X025779Y051166D03*
G54D12*
X025898Y051166D02*
X023029Y050165D02*
G54D13*
X022780Y050165D03*
G54D12*
X022898Y050165D02*
X026029Y050165D02*
G54D13*
X025779Y050165D03*
G54D12*
X025898Y050165D02*
X023029Y049165D02*
G54D13*
X022780Y049165D03*
G54D12*
X022898Y049165D02*
X026029Y049165D02*
G54D13*
X025779Y049165D03*
G54D12*
X025898Y049165D02*
X023029Y048165D02*
G54D13*
X022780Y048165D03*
G54D12*
X022898Y048165D02*
X026029Y048165D02*
G54D13*
X025779Y048165D03*
G54D12*
X025898Y048165D02*
X023029Y047165D02*
G54D13*
X022780Y047164D03*
G54D12*
X022898Y047165D02*
X026029Y047165D02*
G54D13*
X025779Y047164D03*
G54D12*
X025898Y047165D02*
X023029Y046164D02*
G54D13*
X022780Y046164D03*
G54D12*
X022898Y046164D02*
X026029Y046164D02*
G54D13*
X025779Y046164D03*
G54D12*
X025898Y046164D02*
X023029Y045164D02*
G54D13*
X022780Y045164D03*
G54D12*
X022898Y045164D02*
X026029Y045164D02*
G54D13*
X025779Y045164D03*
G54D12*
X025898Y045164D02*
X023029Y044164D02*
G54D13*
X022780Y044164D03*
G54D12*
X022898Y044164D02*
X026029Y044164D02*
G54D13*
X025779Y044164D03*
G54D12*
X025898Y044164D02*
X012030Y076167D02*
G54D12*
X011780Y076167D03*
G54D12*
X011898Y076167D02*
X012041Y079268D02*
G54D12*
X011791Y079268D03*
G54D12*
X011910Y079268D02*
X012030Y081276D02*
G54D12*
X011780Y081276D03*
G54D12*
X011898Y081276D02*
X019009Y079280D02*
G54D12*
X018759Y079280D03*
G54D12*
X018877Y079280D02*
X019009Y081276D02*
G54D12*
X018759Y081276D03*
G54D12*
X018877Y081276D02*
X026011Y079280D02*
G54D12*
X025761Y079280D03*
G54D12*
X025880Y079280D02*
X026011Y081276D02*
G54D12*
X025761Y081276D03*
G54D12*
X025880Y081276D02*
X027921Y080524D02*
G54D12*
X027671Y080524D03*
G54D12*
X027789Y080524D02*
X027910Y079292D02*
G54D12*
X027660Y079292D03*
G54D12*
X027778Y079292D02*
X016030Y076167D02*
G54D12*
X015780Y076167D03*
G54D12*
X015898Y076167D02*
X016030Y075167D02*
G54D12*
X015780Y075167D03*
G54D12*
X015898Y075167D02*
X019030Y075167D02*
G54D12*
X018780Y075167D03*
G54D12*
X018898Y075167D02*
X016030Y074167D02*
G54D12*
X015780Y074167D03*
G54D12*
X015898Y074167D02*
X019030Y074167D02*
G54D12*
X018780Y074167D03*
G54D12*
X018898Y074167D02*
X016030Y073167D02*
G54D12*
X015780Y073167D03*
G54D12*
X015898Y073167D02*
X019030Y073167D02*
G54D12*
X018780Y073167D03*
G54D12*
X018898Y073167D02*
X016030Y072167D02*
G54D12*
X015780Y072167D03*
G54D12*
X015898Y072167D02*
X019030Y072167D02*
G54D12*
X018780Y072167D03*
G54D12*
X018898Y072167D02*
X016030Y071167D02*
G54D12*
X015780Y071167D03*
G54D12*
X015898Y071167D02*
X019030Y071167D02*
G54D12*
X018780Y071167D03*
G54D12*
X018898Y071167D02*
X016030Y070167D02*
G54D12*
X015780Y070167D03*
G54D12*
X015898Y070167D02*
X019030Y070167D02*
G54D12*
X018780Y070167D03*
G54D12*
X018898Y070167D02*
X016030Y069167D02*
G54D12*
X015780Y069167D03*
G54D12*
X015898Y069167D02*
X019030Y069167D02*
G54D12*
X018780Y069167D03*
G54D12*
X018898Y069167D02*
X016030Y068167D02*
G54D12*
X015780Y068167D03*
G54D12*
X015898Y068167D02*
X019030Y068167D02*
G54D12*
X018780Y068167D03*
G54D12*
X018898Y068167D02*
X016030Y067167D02*
G54D12*
X015780Y067167D03*
G54D12*
X015898Y067167D02*
X023029Y062151D02*
G54D12*
X022779Y062151D03*
G54D12*
X022898Y062151D02*
X009033Y062139D02*
G54D12*
X008783Y062139D03*
G54D12*
X008902Y062139D02*
X016032Y062160D02*
G54D12*
X015782Y062162D03*
G54D12*
X015901Y062161D02*
X019030Y067167D02*
G54D12*
X018780Y067167D03*
G54D12*
X018898Y067167D02*
X019030Y076167D02*
G54D12*
X018780Y076167D03*
G54D12*
X018898Y076167D02*
X023029Y076167D02*
G54D12*
X022779Y076167D03*
G54D12*
X022898Y076167D02*
X023029Y075167D02*
G54D12*
X022779Y075167D03*
G54D12*
X022898Y075167D02*
X026029Y075167D02*
G54D12*
X025779Y075167D03*
G54D12*
X025898Y075167D02*
X023029Y074167D02*
G54D12*
X022779Y074167D03*
G54D12*
X022898Y074167D02*
X026029Y074167D02*
G54D12*
X025779Y074167D03*
G54D12*
X025898Y074167D02*
X023029Y073167D02*
G54D12*
X022779Y073167D03*
G54D12*
X022898Y073167D02*
X026029Y073167D02*
G54D12*
X025779Y073167D03*
G54D12*
X025898Y073167D02*
X023029Y072167D02*
G54D12*
X022779Y072167D03*
G54D12*
X022898Y072167D02*
X026029Y072167D02*
G54D12*
X025779Y072167D03*
G54D12*
X025898Y072167D02*
X023029Y071167D02*
G54D12*
X022779Y071167D03*
G54D12*
X022898Y071167D02*
X026029Y071167D02*
G54D12*
X025779Y071167D03*
G54D12*
X025898Y071167D02*
X023029Y070167D02*
G54D12*
X022779Y070167D03*
G54D12*
X022898Y070167D02*
X026029Y070167D02*
G54D12*
X025779Y070167D03*
G54D12*
X025898Y070167D02*
X023029Y069167D02*
G54D12*
X022779Y069167D03*
G54D12*
X022898Y069167D02*
X026029Y069167D02*
G54D12*
X025779Y069167D03*
G54D12*
X025898Y069167D02*
X023029Y068167D02*
G54D12*
X022779Y068167D03*
G54D12*
X022898Y068167D02*
X026029Y068167D02*
G54D12*
X025779Y068167D03*
G54D12*
X025898Y068167D02*
X023029Y067167D02*
G54D12*
X022779Y067167D03*
G54D12*
X022898Y067167D02*
X026029Y067167D02*
G54D12*
X025779Y067167D03*
G54D12*
X025898Y067167D02*
X026029Y076167D02*
G54D12*
X025779Y076167D03*
G54D12*
X025898Y076167D02*
X030030Y074167D02*
G54D12*
X029780Y074167D03*
G54D12*
X029898Y074167D02*
X030030Y075781D02*
G54D12*
X029780Y075781D03*
G54D12*
X029898Y075781D02*
X032044Y075781D02*
G54D12*
X031794Y075781D03*
G54D12*
X031912Y075781D02*
X030030Y073167D02*
G54D12*
X029780Y073167D03*
G54D12*
X029898Y073167D02*
X033031Y073167D02*
G54D12*
X032781Y073167D03*
G54D12*
X032899Y073167D02*
X037949Y074271D02*
G54D15*
X037724Y074271D03*
G54D12*
X037843Y074271D02*
X037949Y073275D02*
G54D15*
X037724Y073275D03*
G54D12*
X037843Y073275D02*
X037949Y072280D02*
G54D15*
X037724Y072280D03*
G54D12*
X037843Y072280D02*
X037938Y071273D02*
G54D15*
X037713Y071273D03*
G54D12*
X037831Y071273D02*
X037938Y070278D02*
G54D15*
X037713Y070278D03*
G54D12*
X037831Y070278D02*
X038299Y073768D02*
G54D15*
X038074Y073768D03*
G54D12*
X038193Y073768D02*
X038932Y074951D02*
G54D16*
X038457Y074951D03*
G54D12*
X038840Y074951D02*
X038299Y072773D02*
G54D15*
X038074Y072773D03*
G54D12*
X038193Y072773D02*
X038299Y071778D02*
G54D15*
X038074Y071778D03*
G54D12*
X038193Y071778D02*
X038288Y070771D02*
G54D15*
X038063Y070771D03*
G54D12*
X038181Y070771D02*
X038288Y069775D02*
G54D15*
X038063Y069775D03*
G54D12*
X038181Y069775D02*
X030030Y072167D02*
G54D12*
X029780Y072167D03*
G54D12*
X029898Y072167D02*
X033031Y072167D02*
G54D12*
X032781Y072167D03*
G54D12*
X032899Y072167D02*
X030030Y071167D02*
G54D12*
X029780Y071167D03*
G54D12*
X029898Y071167D02*
X033031Y071167D02*
G54D12*
X032781Y071167D03*
G54D12*
X032899Y071167D02*
X030030Y070167D02*
G54D12*
X029780Y070167D03*
G54D12*
X029898Y070167D02*
X033031Y070167D02*
G54D12*
X032781Y070167D03*
G54D12*
X032899Y070167D02*
X030030Y069167D02*
G54D12*
X029780Y069167D03*
G54D12*
X029898Y069167D02*
X033031Y069167D02*
G54D12*
X032781Y069167D03*
G54D12*
X032899Y069167D02*
X030030Y068167D02*
G54D12*
X029780Y068167D03*
G54D12*
X029898Y068167D02*
X033031Y068167D02*
G54D12*
X032781Y068167D03*
G54D12*
X032899Y068167D02*
X030030Y067167D02*
G54D12*
X029780Y067167D03*
G54D12*
X029898Y067167D02*
X033031Y067167D02*
G54D12*
X032781Y067167D03*
G54D12*
X032899Y067167D02*
X038309Y068261D02*
G54D12*
X038058Y068261D03*
G54D12*
X038177Y068261D02*
X039489Y068261D02*
G54D12*
X039239Y068261D03*
G54D12*
X039357Y068261D02*
X033031Y074167D02*
G54D12*
X032781Y074167D03*
G54D12*
X032899Y074167D02*
X030030Y057167D02*
G54D12*
X029780Y057167D03*
G54D12*
X029898Y057167D02*
X030695Y058782D02*
G54D12*
X030445Y058782D03*
G54D12*
X030564Y058782D02*
X028427Y058782D02*
G54D12*
X028177Y058782D03*
G54D12*
X028295Y058782D02*
X033031Y057167D02*
G54D12*
X032781Y057167D03*
G54D12*
X032899Y057167D02*
X030030Y056167D02*
G54D13*
X029780Y056167D03*
G54D12*
X029898Y056167D02*
X033031Y056167D02*
G54D13*
X032781Y056167D03*
G54D12*
X032899Y056167D02*
X030030Y055167D02*
G54D13*
X029780Y055167D03*
G54D12*
X029898Y055167D02*
X033031Y055167D02*
G54D13*
X032781Y055167D03*
G54D12*
X032899Y055167D02*
X032045Y062878D02*
G54D13*
X031795Y062878D03*
G54D12*
X031913Y062878D02*
X034045Y062878D02*
G54D13*
X033795Y062878D03*
G54D12*
X033913Y062878D02*
X033040Y062878D02*
G54D13*
X032790Y062878D03*
G54D12*
X032908Y062878D02*
X033768Y060533D02*
G54D17*
X033768Y060283D03*
G54D12*
X033768Y060401D02*
X031799Y060537D02*
G54D17*
X031799Y060287D03*
G54D12*
X031799Y060405D02*
X029919Y063479D02*
G54D18*
X029919Y063056D03*
G54D12*
X029919Y063286D02*
X029910Y062169D02*
G54D19*
X029910Y061746D03*
G54D12*
X029910Y061976D02*
X029902Y060859D02*
G54D18*
X029901Y060436D03*
G54D12*
X029902Y060667D02*
X038730Y037448D02*
G54D20*
X038729Y036799D03*
G54D12*
X038730Y037340D02*
X004198Y037431D02*
G54D21*
X004198Y036781D03*
G54D12*
X004198Y037323D02*
X038753Y081437D02*
G54D22*
X038753Y080787D03*
G54D12*
X038753Y081329D02*
X004187Y081431D02*
G54D22*
X004186Y080781D03*
G54D12*
X004187Y081323D02*
X030030Y054167D02*
G54D13*
X029780Y054167D03*
G54D12*
X029898Y054167D02*
X033031Y054167D02*
G54D13*
X032781Y054167D03*
G54D12*
X032899Y054167D02*
M02*