%
M48
M72
T01C0.024
T02C0.077
T03C0.046
T04C0.108
%
T01
X0.878Y7.617
X0.878Y7.517
X1.178Y7.517
X0.878Y7.417
X1.178Y7.417
X0.878Y7.317
X1.178Y7.317
X0.878Y7.217
X1.178Y7.217
X0.878Y7.117
X1.178Y7.117
X0.878Y7.017
X1.178Y7.017
X0.878Y6.917
X1.178Y6.917
X0.878Y6.817
X1.178Y6.817
X0.878Y6.717
X1.178Y6.717
X0.878Y6.117
X1.178Y6.117
X0.878Y6.017
X1.178Y6.017
X0.878Y5.917
X1.178Y5.917
X0.878Y5.817
X1.178Y5.817
X0.878Y5.717
X1.178Y5.717
X0.878Y5.617
X1.178Y5.617
X0.878Y5.517
X1.178Y5.517
X0.878Y5.417
X1.178Y5.417
X0.878Y5.117
X1.178Y5.117
X1.277Y5.052
X1.270Y5.228
X1.279Y6.056
X1.270Y6.217
X1.975Y6.054
X1.975Y6.217
X2.678Y6.051
X2.676Y6.216
X1.977Y5.056
X1.977Y5.228
X2.677Y5.052
X2.675Y5.229
X0.878Y5.017
X1.178Y5.017
X0.878Y4.917
X1.178Y4.917
X0.878Y4.816
X1.178Y4.816
X0.878Y4.716
X1.178Y4.716
X0.878Y4.616
X1.178Y4.616
X0.878Y4.516
X1.178Y4.516
X1.278Y4.116
X1.278Y3.816
X1.178Y4.116
X1.178Y3.816
X1.078Y4.116
X1.078Y3.816
X0.978Y4.116
X0.978Y3.816
X0.878Y4.116
X0.878Y3.816
X0.778Y4.116
X0.778Y3.816
X0.678Y4.116
X0.677Y4.227
X0.678Y4.416
X0.678Y3.816
X2.178Y4.116
X2.178Y3.816
X2.078Y4.116
X2.078Y3.816
X1.978Y4.116
X1.978Y3.816
X1.878Y4.116
X1.878Y3.816
X1.778Y4.116
X1.778Y3.816
X1.678Y4.116
X1.678Y3.816
X1.578Y4.116
X1.402Y4.219
X1.399Y4.416
X1.578Y3.816
X0.878Y4.416
X1.178Y4.416
X1.578Y6.117
X1.878Y6.117
X1.578Y6.017
X1.878Y6.017
X1.578Y5.917
X1.878Y5.917
X1.578Y5.817
X1.878Y5.817
X1.578Y5.717
X1.878Y5.717
X1.578Y5.617
X1.878Y5.617
X1.578Y5.517
X1.878Y5.517
X1.578Y5.417
X1.878Y5.417
X1.578Y5.117
X1.521Y5.229
X1.621Y5.305
X1.878Y5.117
X1.578Y5.017
X1.878Y5.017
X1.578Y4.917
X1.878Y4.917
X1.578Y4.816
X1.878Y4.816
X1.578Y4.716
X1.878Y4.716
X1.578Y4.616
X1.878Y4.616
X1.578Y4.516
X1.878Y4.516
X1.578Y4.416
X1.878Y4.416
X2.278Y6.117
X2.578Y6.117
X2.278Y6.017
X2.578Y6.017
X2.278Y5.917
X2.578Y5.917
X2.278Y5.817
X2.578Y5.817
X2.278Y5.717
X2.578Y5.717
X2.278Y5.617
X2.578Y5.617
X2.278Y5.517
X2.578Y5.517
X2.278Y5.417
X2.578Y5.417
X2.278Y5.117
X2.578Y5.117
X2.278Y5.017
X2.578Y5.017
X2.278Y4.917
X2.578Y4.917
X2.278Y4.816
X2.578Y4.816
X2.278Y4.716
X2.578Y4.716
X2.278Y4.616
X2.578Y4.616
X2.278Y4.516
X2.578Y4.516
X2.278Y4.416
X2.578Y4.416
X1.178Y7.617
X1.179Y7.927
X1.178Y8.128
X1.876Y7.928
X1.876Y8.128
X2.576Y7.928
X2.576Y8.128
X2.767Y8.052
X2.766Y7.929
X1.578Y7.617
X1.578Y7.517
X1.878Y7.517
X1.578Y7.417
X1.878Y7.417
X1.578Y7.317
X1.878Y7.317
X1.578Y7.217
X1.878Y7.217
X1.578Y7.117
X1.878Y7.117
X1.578Y7.017
X1.878Y7.017
X1.578Y6.917
X1.878Y6.917
X1.578Y6.817
X1.878Y6.817
X1.578Y6.717
X2.278Y6.215
X0.878Y6.214
X1.578Y6.216
X1.878Y6.717
X1.878Y7.617
X2.278Y7.617
X2.278Y7.517
X2.578Y7.517
X2.278Y7.417
X2.578Y7.417
X2.278Y7.317
X2.578Y7.317
X2.278Y7.217
X2.578Y7.217
X2.278Y7.117
X2.578Y7.117
X2.278Y7.017
X2.578Y7.017
X2.278Y6.917
X2.578Y6.917
X2.278Y6.817
X2.578Y6.817
X2.278Y6.717
X2.578Y6.717
X2.578Y7.617
X2.978Y7.417
X2.978Y7.578
X3.179Y7.578
X2.978Y7.317
X3.278Y7.317
X3.772Y7.427
X3.772Y7.328
X3.772Y7.228
X3.771Y7.127
X3.771Y7.028
X3.807Y7.377
T02
X3.845Y7.495
T01
X3.807Y7.277
X3.807Y7.178
X3.806Y7.077
X3.806Y6.978
X2.978Y7.217
X3.278Y7.217
X2.978Y7.117
X3.278Y7.117
X2.978Y7.017
X3.278Y7.017
X2.978Y6.917
X3.278Y6.917
X2.978Y6.817
X3.278Y6.817
X2.978Y6.717
X3.278Y6.717
X3.806Y6.826
X3.924Y6.826
X3.278Y7.417
X2.978Y5.717
X3.044Y5.878
X2.817Y5.878
X3.278Y5.717
X2.978Y5.617
X3.278Y5.617
X2.978Y5.517
X3.278Y5.517
X3.179Y6.288
X3.379Y6.288
X3.279Y6.288
X3.377Y6.028
X3.180Y6.028
T03
X2.992Y6.306
X2.991Y6.175
X2.990Y6.044
T04
X3.873Y3.680
X0.420Y3.678
X3.875Y8.079
X0.419Y8.078
T01
X2.978Y5.417
X3.278Y5.417
T00
M30