%
M48
M72
T01C0.024
T02C0.080
T03C0.108
T04C0.046
T05C0.035
%
T01
X3.083Y4.984
X3.397Y4.984
X3.083Y4.884
X3.397Y4.884
X3.083Y4.784
X3.397Y4.784
X3.083Y4.684
X3.397Y4.684
X3.675Y7.180
X3.774Y7.180
X3.874Y7.180
X3.975Y7.179
X4.074Y7.179
X3.725Y7.215
T02
X3.607Y7.253
T01
X3.825Y7.215
X3.924Y7.215
X4.025Y7.214
X4.124Y7.214
X4.042Y5.830
X4.042Y5.731
X4.042Y5.631
X4.041Y5.530
X4.041Y5.431
X4.077Y5.780
T02
X4.116Y5.898
T01
X4.077Y5.680
X4.077Y5.581
X4.076Y5.480
X4.076Y5.381
T03
X4.914Y8.077
X4.916Y4.624
X0.515Y8.079
X0.516Y4.622
T04
X1.827Y5.111
X1.424Y4.986
T05
X3.671Y5.114
X4.056Y6.431
X4.153Y6.532
X4.280Y6.931
X3.958Y6.324
X4.072Y6.731
X2.707Y4.982
X2.707Y5.111
X3.861Y6.227
X4.169Y6.829
X3.671Y4.986
T00
M30