%FSLAX24Y24*%
%MOIN*%
%ADD10C,0.01389*%
%ADD11C,0.02778*%
%ADD12C,0.01000*%
%ADD13C,0.05003*%
%ADD14C,0.04500*%
%ADD15C,0.10000*%
%ADD16C,0.04499*%
%ADD17C,0.10001*%
%ADD18C,0.13000*%
%ADD19C,0.13001*%
%ADD20C,0.08471*%
%ADD21C,0.08469*%
%ADD22C,0.06000*%
%ADD23C,0.05500*%
%ADD24C,0.12500*%
%ADD25C,0.10556*%
%ADD26C,0.08125*%
%ADD27C,0.06500*%
G01*
G54D10*
X040703Y058304D02*
G54D23*
X040428Y058304D03*
G54D10*
X041782Y058981D02*
G54D24*
X041157Y058981D03*
G54D10*
X041050Y057784D02*
G54D23*
X040775Y057784D03*
G54D10*
X040686Y057280D02*
G54D23*
X040411Y057280D03*
G54D10*
X041050Y056794D02*
G54D23*
X040775Y056794D03*
G54D10*
X040686Y056290D02*
G54D23*
X040411Y056290D03*
G54D10*
X041058Y055781D02*
G54D23*
X040783Y055781D03*
G54D10*
X040676Y055295D02*
G54D23*
X040401Y055295D03*
G54D10*
X041024Y054792D02*
G54D23*
X040749Y054792D03*
G54D10*
X040676Y054288D02*
G54D23*
X040401Y054288D03*
G54D10*
X041041Y053802D02*
G54D23*
X040766Y053802D03*
G54D10*
X018809Y051094D02*
G54D25*
X018281Y051094D03*
G54D10*
X014781Y049878D02*
G54D25*
X014253Y049878D03*
G54D10*
X039017Y062257D02*
G54D26*
X038611Y062257D03*
G54D10*
X039955Y063229D02*
G54D26*
X039549Y063229D03*
G54D10*
X040962Y064271D02*
G54D26*
X040556Y064271D03*
G54D10*
X041969Y065313D02*
G54D26*
X041562Y065313D03*
G54D10*
X041135Y067292D02*
G54D26*
X040729Y067292D03*
G54D10*
X042108Y068299D02*
G54D26*
X041701Y068299D03*
G54D10*
X043219Y069306D02*
G54D26*
X042812Y069306D03*
G54D10*
X037119Y049838D02*
G54D26*
X036713Y049838D03*
G54D10*
X037119Y051123D02*
G54D26*
X036713Y051123D03*
G54D10*
X027490Y049792D02*
G54D26*
X027083Y049792D03*
G54D10*
X027524Y051111D02*
G54D26*
X027118Y051111D03*
G54D10*
X031158Y049860D02*
G54D27*
X030833Y049860D03*
G54D10*
X031158Y048846D02*
G54D27*
X030833Y048846D03*
G54D10*
X031158Y047857D02*
G54D27*
X030833Y047857D03*
G54D10*
X031158Y046852D02*
G54D27*
X030833Y046852D03*
G54D10*
X034306Y049860D02*
G54D27*
X033981Y049860D03*
G54D10*
X034306Y048846D02*
G54D27*
X033981Y048846D03*
G54D10*
X034306Y047857D02*
G54D27*
X033981Y047857D03*
G54D10*
X034306Y046852D02*
G54D27*
X033981Y046852D03*
G54D10*
X036719Y072115D02*
G54D23*
X036719Y071840D03*
G54D10*
X036042Y073194D02*
G54D24*
X036042Y072569D03*
G54D10*
X037240Y072463D02*
G54D23*
X037240Y072188D03*
G54D10*
X037743Y072098D02*
G54D23*
X037743Y071823D03*
G54D10*
X038229Y072463D02*
G54D23*
X038229Y072188D03*
G54D10*
X038733Y072098D02*
G54D23*
X038733Y071823D03*
G54D10*
X039242Y072470D02*
G54D23*
X039242Y072195D03*
G54D10*
X039728Y072088D02*
G54D23*
X039728Y071813D03*
G54D10*
X040232Y072436D02*
G54D23*
X040232Y072161D03*
G54D10*
X040735Y072088D02*
G54D23*
X040735Y071813D03*
G54D10*
X041221Y072453D02*
G54D23*
X041221Y072178D03*
G54D10*
M02*