%FSLAX24Y24*%
%MOIN*%
%ADD10C,0.01389*%
%ADD11C,0.02778*%
%ADD12C,0.01000*%
%ADD13C,0.05003*%
%ADD14C,0.04500*%
%ADD15C,0.10000*%
%ADD16C,0.04499*%
%ADD17C,0.10001*%
%ADD18C,0.13000*%
%ADD19C,0.13001*%
%ADD20C,0.08471*%
%ADD21C,0.08469*%
%ADD22C,0.06000*%
G01*
G54D10*
G54D11*
X041244Y072176D02*
X041244Y072210D01*
X047940Y072210D01*
X047940Y053066D01*
X040763Y053066D01*
X040763Y053843D01*
G54D12*
X040417Y058264D02*
X042431Y058264D01*
X042431Y062268D01*
X036771Y062268D01*
X036771Y071806D01*
X040764Y057813D02*
X042986Y057813D01*
X042986Y063264D01*
X037222Y063264D01*
X037222Y072153D01*
X040417Y057326D02*
X043438Y057326D01*
X043438Y064306D01*
X037708Y064306D01*
X037708Y071771D01*
X040764Y056806D02*
X043958Y056806D01*
X043958Y065289D01*
X038229Y065289D01*
X038229Y072153D01*
X040417Y056319D02*
X044444Y056319D01*
X044444Y067303D01*
X038715Y067303D01*
X038715Y071840D01*
X040764Y055833D02*
X044931Y055833D01*
X044931Y068287D01*
X039236Y068287D01*
X039236Y072153D01*
X040382Y055313D02*
X045451Y055313D01*
X045451Y069282D01*
X039722Y069282D01*
X039722Y071806D01*
G54D11*
X033934Y046850D02*
X030832Y047868D01*
X030832Y048887D01*
X040764Y054792D02*
X040417Y054340D01*
X046528Y054340D01*
X046528Y070671D01*
X040729Y070671D01*
X040729Y071806D01*
X030786Y046850D02*
X028332Y046850D01*
X028332Y049859D01*
X030832Y049859D01*
X014239Y049859D01*
X033961Y051110D02*
X025276Y051110D01*
X025276Y051110D01*
X018332Y051110D01*
X033971Y046840D02*
X033971Y048840D01*
G54D12*
X016739Y050785D02*
X017572Y050785D01*
X013035Y049257D02*
X013868Y049257D01*
X013452Y049674D02*
X013452Y048840D01*
G54D11*
X033961Y049859D02*
X036711Y049859D01*
X040763Y053066D01*
X040417Y054340D02*
X036711Y051112D01*
X033961Y051112D01*
X030844Y048828D01*
X031084Y049841D02*
G54D13*
X030834Y049840D03*
G54D11*
X030952Y049841D02*
X034223Y049841D02*
G54D13*
X033973Y049840D03*
G54D11*
X034091Y049841D02*
X031084Y048840D02*
G54D13*
X030834Y048840D03*
G54D11*
X030952Y048840D02*
X034223Y048840D02*
G54D13*
X033973Y048840D03*
G54D11*
X034091Y048840D02*
X031084Y047840D02*
G54D13*
X030834Y047840D03*
G54D11*
X030952Y047840D02*
X034223Y047840D02*
G54D13*
X033973Y047840D03*
G54D11*
X034091Y047840D02*
X031084Y046840D02*
G54D13*
X030834Y046840D03*
G54D11*
X030952Y046840D02*
X034223Y046840D02*
G54D13*
X033973Y046840D03*
G54D11*
X034091Y046840D02*
X036748Y072029D02*
G54D14*
X036748Y071804D03*
G54D11*
X036748Y071922D02*
X037744Y072029D02*
G54D14*
X037744Y071804D03*
G54D11*
X037744Y071922D02*
X038739Y072029D02*
G54D14*
X038739Y071804D03*
G54D11*
X038739Y071922D02*
X039746Y072017D02*
G54D14*
X039746Y071792D03*
G54D11*
X039746Y071910D02*
X040741Y072017D02*
G54D14*
X040741Y071792D03*
G54D11*
X040741Y071910D02*
X037250Y072379D02*
G54D14*
X037251Y072154D03*
G54D11*
X037250Y072272D02*
X036068Y073036D02*
G54D15*
X036068Y072536D03*
G54D11*
X036068Y072933D02*
X038246Y072379D02*
G54D14*
X038246Y072154D03*
G54D11*
X038246Y072272D02*
X039241Y072379D02*
G54D14*
X039241Y072154D03*
G54D11*
X039241Y072272D02*
X040248Y072367D02*
G54D14*
X040248Y072142D03*
G54D11*
X040248Y072260D02*
X041244Y072367D02*
G54D14*
X041244Y072142D03*
G54D11*
X041244Y072260D02*
X040651Y058303D02*
G54D14*
X040426Y058303D03*
G54D11*
X040544Y058303D02*
X040651Y057307D02*
G54D14*
X040426Y057307D03*
G54D11*
X040544Y057307D02*
X040651Y056312D02*
G54D14*
X040426Y056312D03*
G54D11*
X040544Y056312D02*
X040640Y055305D02*
G54D14*
X040415Y055305D03*
G54D11*
X040533Y055305D02*
X040640Y054309D02*
G54D14*
X040415Y054309D03*
G54D11*
X040533Y054309D02*
X041001Y057800D02*
G54D16*
X040776Y057800D03*
G54D11*
X040894Y057800D02*
X041659Y058983D02*
G54D17*
X041159Y058983D03*
G54D11*
X041556Y058983D02*
X041001Y056805D02*
G54D16*
X040776Y056805D03*
G54D11*
X040894Y056805D02*
X041001Y055810D02*
G54D16*
X040776Y055809D03*
G54D11*
X040894Y055810D02*
X040989Y054803D02*
G54D14*
X040764Y054803D03*
G54D11*
X040883Y054803D02*
X040989Y053807D02*
G54D14*
X040764Y053807D03*
G54D11*
X040883Y053807D02*
X048490Y080767D02*
G54D18*
X049140Y080767D03*
G54D11*
X048598Y080767D02*
X048508Y046235D02*
G54D19*
X049158Y046236D03*
G54D11*
X048616Y046235D02*
X004502Y080790D02*
G54D18*
X005152Y080790D03*
G54D11*
X004610Y080790D02*
X004508Y046224D02*
G54D19*
X005158Y046224D03*
G54D11*
X004615Y046224D02*
X018266Y051532D02*
G54D20*
X018266Y051108D03*
G54D11*
X018266Y051339D02*
X014239Y050283D02*
G54D21*
X014238Y049859D03*
G54D11*
X014239Y050090D02*
X036408Y051143D02*
G54D22*
X036708Y051143D03*
G54D11*
X036535Y051143D02*
X040254Y064305D02*
G54D22*
X040554Y064305D03*
G54D11*
X040381Y064305D02*
X041227Y065323D02*
G54D22*
X041527Y065324D03*
G54D11*
X041354Y065323D02*
X042500Y069305D02*
G54D22*
X042800Y069305D03*
G54D11*
X042627Y069305D02*
X039281Y063240D02*
G54D22*
X039581Y063240D03*
G54D11*
X039408Y063240D02*
X040415Y067315D02*
G54D22*
X040715Y067315D03*
G54D11*
X040542Y067315D02*
X026767Y049825D02*
G54D22*
X027067Y049825D03*
G54D11*
X026893Y049825D02*
X026767Y051110D02*
G54D22*
X027067Y051110D03*
G54D11*
X026893Y051110D02*
X038308Y062268D02*
G54D22*
X038608Y062268D03*
G54D11*
X038435Y062268D02*
X041388Y068286D02*
G54D22*
X041688Y068287D03*
G54D11*
X041515Y068286D02*
X036408Y049858D02*
G54D22*
X036708Y049858D03*
G54D11*
X036535Y049858D02*
M02*