%FSLAX24Y24*%
%MOIN*%
%ADD10C,0.01389*%
%ADD11C,0.05000*%
%ADD12C,0.08471*%
%ADD13C,0.06000*%
%ADD14C,0.05003*%
%ADD15C,0.04500*%
%ADD16C,0.04499*%
%ADD17C,0.10001*%
%ADD18C,0.08469*%
%ADD19C,0.13000*%
%ADD20C,0.13001*%
G01*
G54D10*
G54D11*
X014716Y074562D02*
X017854Y075562D01*
X014716Y072561D02*
X015717Y072561D01*
X015717Y074885D01*
X017854Y075562D02*
X017854Y074562D01*
X014716Y069560D02*
X014721Y068565D01*
X019027Y068565D01*
X019027Y072570D01*
X017854Y072570D01*
X017854Y073561D01*
X017854Y071561D02*
X015717Y072561D01*
X017854Y073561D02*
X020694Y075551D01*
X017854Y075562D02*
X017854Y078079D01*
X023795Y078079D01*
X023795Y075550D01*
X023795Y076829D02*
X025709Y076987D01*
X020694Y075550D02*
X022152Y075550D01*
X022152Y069537D01*
X025711Y069537D01*
X025711Y069537D02*
X033097Y069537D01*
X029959Y075570D02*
X029959Y074560D01*
X028587Y074560D01*
X028587Y069560D01*
X028587Y059560D01*
X026716Y059560D01*
X033097Y069568D02*
X037691Y069568D01*
X023795Y078074D02*
X040832Y078074D01*
X040832Y075543D01*
X033097Y075570D02*
X033097Y078079D01*
X037691Y069541D02*
X037691Y068357D01*
X044721Y068357D01*
X044721Y069541D01*
X040832Y078074D02*
X047823Y078074D01*
X047823Y075543D01*
X049163Y075521D01*
X049163Y066528D01*
X031226Y066528D01*
X031226Y058195D01*
X025323Y058195D01*
X025323Y061551D01*
X026716Y061551D01*
X025231Y061551D02*
X025231Y067847D01*
X023861Y067847D01*
X031226Y066528D02*
X029855Y066528D01*
X028518Y062593D02*
X026716Y062593D01*
X028541Y063542D02*
X026716Y063542D01*
X023861Y062538D02*
X022198Y062538D01*
X023861Y064538D02*
X022152Y064538D01*
X022152Y059560D01*
X020722Y059560D01*
X015879Y068519D02*
X015879Y059560D01*
X020722Y059560D01*
X014703Y060524D02*
X015879Y060524D01*
X023861Y066539D02*
X023861Y067847D01*
X019235Y067847D01*
X019235Y066525D01*
X017843Y066525D01*
X015879Y059549D02*
X011226Y059549D01*
X011226Y048565D01*
X012325Y048565D01*
X012325Y051546D02*
X011227Y051546D01*
X012337Y048565D02*
X012337Y047269D01*
X034976Y047269D01*
X034976Y055556D01*
X033726Y055556D01*
X026730Y049531D02*
X026730Y047292D01*
X029883Y058148D02*
X029883Y055533D01*
X031226Y058195D02*
X036874Y058195D01*
X036874Y055566D01*
X014716Y069491D02*
X011215Y069491D01*
X011122Y069583D02*
X011122Y073588D01*
X012225Y073588D01*
X014675Y066551D02*
X015809Y066551D01*
X014698Y064560D02*
X015832Y064560D01*
X033726Y054584D02*
X036897Y054584D01*
X036920Y053565D02*
X035022Y053565D01*
X036897Y051574D02*
X035045Y051574D01*
X036897Y050579D02*
X034999Y050579D01*
X033749Y049584D02*
X034837Y049584D01*
X011250Y057552D02*
X008732Y057552D01*
X008732Y062379D01*
X009964Y062379D01*
X010312Y062865D01*
X010312Y061858D02*
X012082Y061858D01*
X012082Y068403D01*
X008732Y068403D01*
X008732Y073611D01*
X009999Y073611D01*
X009999Y078056D01*
X017854Y078056D01*
X019281Y075209D02*
X019281Y074584D01*
X022129Y076829D02*
X022129Y075550D01*
X031247Y077223D02*
X029958Y075570D01*
X042754Y068473D02*
X042754Y077037D01*
X019281Y076829D02*
X017869Y076829D01*
X042754Y077037D02*
X046133Y077037D01*
X019235Y059584D02*
X019235Y064954D01*
X026828Y069445D02*
X026828Y067848D01*
X031226Y068102D02*
X031226Y069537D01*
X034976Y055556D02*
X034976Y057084D01*
X029869Y055533D02*
X030971Y055533D01*
X033756Y055566D02*
X032636Y055566D01*
X025346Y058264D02*
X025323Y055579D01*
X015485Y055579D01*
X017221Y059566D02*
X017221Y057188D01*
X039768Y062558D02*
X041701Y062558D01*
X041747Y047292D01*
X035022Y047292D01*
X047893Y057940D02*
X047893Y052060D01*
X041758Y052060D01*
X042916Y061551D02*
X041712Y061551D01*
X039768Y056574D02*
X039768Y053588D01*
X041735Y053588D01*
X042916Y062570D02*
X042916Y066528D01*
X041689Y062639D02*
X041689Y064329D01*
X036895Y055566D02*
X038228Y055566D01*
X038228Y049080D01*
X040362Y049080D01*
X010321Y061851D02*
X010321Y058820D01*
X015464Y055548D02*
X012325Y053547D01*
X025709Y075742D02*
G54D12*
X025709Y075319D03*
G54D11*
X025709Y075549D02*
X025407Y071003D02*
G54D13*
X025707Y071003D03*
G54D11*
X025534Y071003D02*
X025413Y069498D02*
G54D13*
X025713Y069498D03*
G54D11*
X025540Y069498D02*
X024906Y067871D02*
G54D13*
X025206Y067871D03*
G54D11*
X025032Y067871D02*
X026526Y067847D02*
G54D13*
X026826Y067848D03*
G54D11*
X026653Y067847D02*
X030924Y066528D02*
G54D13*
X031224Y066528D03*
G54D11*
X031051Y066528D02*
X030924Y068102D02*
G54D13*
X031224Y068102D03*
G54D11*
X031051Y068102D02*
X023532Y069509D02*
G54D13*
X023832Y069510D03*
G54D11*
X023659Y069509D02*
X023531Y071028D02*
G54D13*
X023831Y071028D03*
G54D11*
X023657Y071028D02*
X025407Y072669D02*
G54D13*
X025707Y072669D03*
G54D11*
X025534Y072669D02*
X025407Y073930D02*
G54D13*
X025707Y073931D03*
G54D11*
X025534Y073930D02*
X032822Y077222D02*
G54D13*
X033122Y077223D03*
G54D11*
X032949Y077222D02*
X042452Y077037D02*
G54D13*
X042752Y077037D03*
G54D11*
X042579Y077037D02*
X045832Y077037D02*
G54D13*
X046132Y077037D03*
G54D11*
X045958Y077037D02*
X047521Y077037D02*
G54D13*
X047821Y077037D03*
G54D11*
X047648Y077037D02*
X040554Y077014D02*
G54D13*
X040854Y077014D03*
G54D11*
X040681Y077014D02*
X030947Y077222D02*
G54D13*
X031247Y077223D03*
G54D11*
X031074Y077222D02*
X023563Y076875D02*
G54D13*
X023863Y076875D03*
G54D11*
X023690Y076875D02*
X021827Y076829D02*
G54D13*
X022127Y076829D03*
G54D11*
X021954Y076829D02*
X018980Y076829D02*
G54D13*
X019280Y076829D03*
G54D11*
X019106Y076829D02*
X018980Y075185D02*
G54D13*
X019280Y075185D03*
G54D11*
X019107Y075185D02*
X018957Y066574D02*
G54D13*
X019257Y066574D03*
G54D11*
X019083Y066574D02*
X018933Y064954D02*
G54D13*
X019233Y064954D03*
G54D11*
X019060Y064954D02*
X034674Y057084D02*
G54D13*
X034974Y057084D03*
G54D11*
X034801Y057084D02*
X032336Y055556D02*
G54D13*
X032636Y055556D03*
G54D11*
X032463Y055556D02*
X030739Y055556D02*
G54D13*
X031039Y055556D03*
G54D11*
X030866Y055556D02*
X016937Y055573D02*
G54D13*
X017237Y055573D03*
G54D11*
X017064Y055573D02*
X010016Y057564D02*
G54D13*
X010316Y057564D03*
G54D11*
X010142Y057564D02*
X016920Y057205D02*
G54D13*
X017220Y057205D03*
G54D11*
X017046Y057205D02*
X010019Y058820D02*
G54D13*
X010319Y058820D03*
G54D11*
X010146Y058820D02*
X036572Y057107D02*
G54D13*
X036872Y057107D03*
G54D11*
X036699Y057107D02*
X040062Y049080D02*
G54D13*
X040362Y049080D03*
G54D11*
X040189Y049080D02*
X041422Y049074D02*
G54D13*
X041722Y049074D03*
G54D11*
X041549Y049074D02*
X046451Y057534D02*
G54D13*
X046751Y057534D03*
G54D11*
X046578Y057534D02*
X045913Y058507D02*
G54D13*
X046213Y058507D03*
G54D11*
X046040Y058507D02*
X044801Y058507D02*
G54D13*
X045101Y058507D03*
G54D11*
X044928Y058507D02*
X044801Y060592D02*
G54D13*
X045101Y060592D03*
G54D11*
X044928Y060592D02*
X045913Y060592D02*
G54D13*
X046213Y060592D03*
G54D11*
X046040Y060592D02*
X045832Y059584D02*
G54D13*
X046132Y059584D03*
G54D11*
X045959Y059584D02*
X045370Y061552D02*
G54D13*
X045670Y061552D03*
G54D11*
X045496Y061552D02*
X046411Y061552D02*
G54D13*
X046711Y061552D03*
G54D11*
X046538Y061552D02*
X042753Y064306D02*
G54D13*
X043053Y064306D03*
G54D11*
X042880Y064306D02*
X041248Y064329D02*
G54D13*
X041548Y064329D03*
G54D11*
X041375Y064329D02*
X044559Y059560D02*
G54D13*
X044859Y059560D03*
G54D11*
X044685Y059560D02*
X045427Y057570D02*
G54D13*
X045727Y057570D03*
G54D11*
X045553Y057570D02*
X014954Y066525D02*
G54D14*
X014704Y066525D03*
G54D11*
X014823Y066525D02*
X018093Y066525D02*
G54D14*
X017843Y066525D03*
G54D11*
X017962Y066525D02*
X014954Y065525D02*
G54D14*
X014704Y065525D03*
G54D11*
X014823Y065525D02*
X018093Y065525D02*
G54D14*
X017843Y065525D03*
G54D11*
X017962Y065525D02*
X014954Y064525D02*
G54D14*
X014704Y064525D03*
G54D11*
X014823Y064525D02*
X018093Y064525D02*
G54D14*
X017843Y064525D03*
G54D11*
X017962Y064525D02*
X014954Y063525D02*
G54D14*
X014704Y063524D03*
G54D11*
X014823Y063525D02*
X018093Y063525D02*
G54D14*
X017843Y063524D03*
G54D11*
X017962Y063525D02*
X014954Y062524D02*
G54D14*
X014704Y062524D03*
G54D11*
X014823Y062524D02*
X018093Y062524D02*
G54D14*
X017843Y062524D03*
G54D11*
X017962Y062524D02*
X014954Y061524D02*
G54D14*
X014704Y061524D03*
G54D11*
X014823Y061524D02*
X018093Y061524D02*
G54D14*
X017843Y061524D03*
G54D11*
X017962Y061524D02*
X014954Y060524D02*
G54D14*
X014704Y060524D03*
G54D11*
X014823Y060524D02*
X018093Y060524D02*
G54D14*
X017843Y060524D03*
G54D11*
X017962Y060524D02*
X012577Y055548D02*
G54D14*
X012327Y055548D03*
G54D11*
X012445Y055548D02*
X015716Y055548D02*
G54D14*
X015466Y055548D03*
G54D11*
X015584Y055548D02*
X012577Y054547D02*
G54D14*
X012327Y054547D03*
G54D11*
X012445Y054547D02*
X015716Y054547D02*
G54D14*
X015466Y054547D03*
G54D11*
X015584Y054547D02*
X012577Y053547D02*
G54D14*
X012327Y053547D03*
G54D11*
X012445Y053547D02*
X015716Y053547D02*
G54D14*
X015466Y053547D03*
G54D11*
X015584Y053547D02*
X012577Y052547D02*
G54D14*
X012327Y052547D03*
G54D11*
X012445Y052547D02*
X015716Y052547D02*
G54D14*
X015466Y052547D03*
G54D11*
X015584Y052547D02*
X012577Y051547D02*
G54D14*
X012327Y051546D03*
G54D11*
X012445Y051547D02*
X015716Y051547D02*
G54D14*
X015466Y051546D03*
G54D11*
X015584Y051547D02*
X012577Y050546D02*
G54D14*
X012327Y050546D03*
G54D11*
X012445Y050546D02*
X015716Y050546D02*
G54D14*
X015466Y050546D03*
G54D11*
X015584Y050546D02*
X012577Y049546D02*
G54D14*
X012327Y049546D03*
G54D11*
X012445Y049546D02*
X015716Y049546D02*
G54D14*
X015466Y049546D03*
G54D11*
X015584Y049546D02*
X012577Y048573D02*
G54D14*
X012327Y048573D03*
G54D11*
X012445Y048573D02*
X015716Y048573D02*
G54D14*
X015466Y048573D03*
G54D11*
X015584Y048573D02*
X020974Y066539D02*
G54D14*
X020724Y066539D03*
G54D11*
X020842Y066539D02*
X024113Y066539D02*
G54D14*
X023863Y066539D03*
G54D11*
X023981Y066539D02*
X020974Y065538D02*
G54D14*
X020724Y065538D03*
G54D11*
X020842Y065538D02*
X024113Y065538D02*
G54D14*
X023863Y065538D03*
G54D11*
X023981Y065538D02*
X020974Y064538D02*
G54D14*
X020724Y064538D03*
G54D11*
X020842Y064538D02*
X024113Y064538D02*
G54D14*
X023863Y064538D03*
G54D11*
X023981Y064538D02*
X020974Y063538D02*
G54D14*
X020724Y063538D03*
G54D11*
X020842Y063538D02*
X024113Y063538D02*
G54D14*
X023863Y063538D03*
G54D11*
X023981Y063538D02*
X020974Y062538D02*
G54D14*
X020724Y062537D03*
G54D11*
X020842Y062538D02*
X024113Y062538D02*
G54D14*
X023863Y062537D03*
G54D11*
X023981Y062538D02*
X020974Y061537D02*
G54D14*
X020724Y061537D03*
G54D11*
X020842Y061537D02*
X024113Y061537D02*
G54D14*
X023863Y061537D03*
G54D11*
X023981Y061537D02*
X020974Y060537D02*
G54D14*
X020724Y060537D03*
G54D11*
X020842Y060537D02*
X024113Y060537D02*
G54D14*
X023863Y060537D03*
G54D11*
X023981Y060537D02*
X020974Y059564D02*
G54D14*
X020724Y059564D03*
G54D11*
X020842Y059564D02*
X024113Y059564D02*
G54D14*
X023863Y059564D03*
G54D11*
X023981Y059564D02*
X026968Y066543D02*
G54D14*
X026718Y066543D03*
G54D11*
X026836Y066543D02*
X030107Y066543D02*
G54D14*
X029857Y066543D03*
G54D11*
X029975Y066543D02*
X026968Y065543D02*
G54D14*
X026718Y065543D03*
G54D11*
X026836Y065543D02*
X030107Y065543D02*
G54D14*
X029857Y065543D03*
G54D11*
X029975Y065543D02*
X026968Y064543D02*
G54D14*
X026718Y064542D03*
G54D11*
X026836Y064543D02*
X030107Y064543D02*
G54D14*
X029857Y064542D03*
G54D11*
X029975Y064543D02*
X026968Y063542D02*
G54D14*
X026718Y063542D03*
G54D11*
X026836Y063542D02*
X030107Y063542D02*
G54D14*
X029857Y063542D03*
G54D11*
X029975Y063542D02*
X026968Y062542D02*
G54D14*
X026718Y062542D03*
G54D11*
X026836Y062542D02*
X030107Y062542D02*
G54D14*
X029857Y062542D03*
G54D11*
X029975Y062542D02*
X026968Y061542D02*
G54D14*
X026718Y061541D03*
G54D11*
X026836Y061542D02*
X030107Y061542D02*
G54D14*
X029857Y061541D03*
G54D11*
X029975Y061542D02*
X026968Y060541D02*
G54D14*
X026718Y060541D03*
G54D11*
X026836Y060541D02*
X030107Y060541D02*
G54D14*
X029857Y060541D03*
G54D11*
X029975Y060541D02*
X030210Y075570D02*
G54D14*
X029960Y075570D03*
G54D11*
X030078Y075570D02*
X033349Y075570D02*
G54D14*
X033099Y075570D03*
G54D11*
X033217Y075570D02*
X030210Y074570D02*
G54D14*
X029960Y074570D03*
G54D11*
X030078Y074570D02*
X033349Y074570D02*
G54D14*
X033099Y074570D03*
G54D11*
X033217Y074570D02*
X030210Y073569D02*
G54D14*
X029960Y073569D03*
G54D11*
X030078Y073569D02*
X033349Y073569D02*
G54D14*
X033099Y073569D03*
G54D11*
X033217Y073569D02*
X030210Y072569D02*
G54D14*
X029960Y072569D03*
G54D11*
X030078Y072569D02*
X033349Y072569D02*
G54D14*
X033099Y072569D03*
G54D11*
X033217Y072569D02*
X030210Y071569D02*
G54D14*
X029960Y071569D03*
G54D11*
X030078Y071569D02*
X033349Y071569D02*
G54D14*
X033099Y071569D03*
G54D11*
X033217Y071569D02*
X030210Y070568D02*
G54D14*
X029960Y070568D03*
G54D11*
X030078Y070568D02*
X033349Y070568D02*
G54D14*
X033099Y070568D03*
G54D11*
X033217Y070568D02*
X030210Y069568D02*
G54D14*
X029960Y069568D03*
G54D11*
X030078Y069568D02*
X033349Y069568D02*
G54D14*
X033099Y069568D03*
G54D11*
X033217Y069568D02*
X037943Y075543D02*
G54D14*
X037693Y075543D03*
G54D11*
X037811Y075543D02*
X041082Y075543D02*
G54D14*
X040832Y075543D03*
G54D11*
X040950Y075543D02*
X037943Y074543D02*
G54D14*
X037693Y074543D03*
G54D11*
X037811Y074543D02*
X041082Y074543D02*
G54D14*
X040832Y074543D03*
G54D11*
X040950Y074543D02*
X037943Y073543D02*
G54D14*
X037693Y073543D03*
G54D11*
X037811Y073543D02*
X041082Y073543D02*
G54D14*
X040832Y073543D03*
G54D11*
X040950Y073543D02*
X037943Y072542D02*
G54D14*
X037693Y072542D03*
G54D11*
X037811Y072542D02*
X041082Y072542D02*
G54D14*
X040832Y072542D03*
G54D11*
X040950Y072542D02*
X037943Y071542D02*
G54D14*
X037693Y071542D03*
G54D11*
X037811Y071542D02*
X041082Y071542D02*
G54D14*
X040832Y071542D03*
G54D11*
X040950Y071542D02*
X037943Y070542D02*
G54D14*
X037693Y070542D03*
G54D11*
X037811Y070542D02*
X041082Y070542D02*
G54D14*
X040832Y070542D03*
G54D11*
X040950Y070542D02*
X037943Y069541D02*
G54D14*
X037693Y069541D03*
G54D11*
X037811Y069541D02*
X041082Y069541D02*
G54D14*
X040832Y069541D03*
G54D11*
X040950Y069541D02*
X044957Y075543D02*
G54D14*
X044707Y075543D03*
G54D11*
X044825Y075543D02*
X048096Y075543D02*
G54D14*
X047846Y075543D03*
G54D11*
X047964Y075543D02*
X044957Y074543D02*
G54D14*
X044707Y074543D03*
G54D11*
X044825Y074543D02*
X048096Y074543D02*
G54D14*
X047846Y074543D03*
G54D11*
X047964Y074543D02*
X044957Y073543D02*
G54D14*
X044707Y073543D03*
G54D11*
X044825Y073543D02*
X048096Y073543D02*
G54D14*
X047846Y073543D03*
G54D11*
X047964Y073543D02*
X044957Y072542D02*
G54D14*
X044707Y072542D03*
G54D11*
X044825Y072542D02*
X048096Y072542D02*
G54D14*
X047846Y072542D03*
G54D11*
X047964Y072542D02*
X044957Y071542D02*
G54D14*
X044707Y071542D03*
G54D11*
X044825Y071542D02*
X048096Y071542D02*
G54D14*
X047846Y071542D03*
G54D11*
X047964Y071542D02*
X044957Y070542D02*
G54D14*
X044707Y070542D03*
G54D11*
X044825Y070542D02*
X048096Y070542D02*
G54D14*
X047846Y070542D03*
G54D11*
X047964Y070542D02*
X044957Y069541D02*
G54D14*
X044707Y069541D03*
G54D11*
X044825Y069541D02*
X048096Y069541D02*
G54D14*
X047846Y069541D03*
G54D11*
X047964Y069541D02*
X034008Y055566D02*
G54D14*
X033758Y055566D03*
G54D11*
X033876Y055566D02*
X037146Y055566D02*
G54D14*
X036897Y055566D03*
G54D11*
X037015Y055566D02*
X034008Y054566D02*
G54D14*
X033758Y054566D03*
G54D11*
X033876Y054566D02*
X037146Y054566D02*
G54D14*
X036897Y054566D03*
G54D11*
X037015Y054566D02*
X034008Y053566D02*
G54D14*
X033758Y053566D03*
G54D11*
X033876Y053566D02*
X037146Y053566D02*
G54D14*
X036897Y053566D03*
G54D11*
X037015Y053566D02*
X034008Y052566D02*
G54D14*
X033758Y052565D03*
G54D11*
X033876Y052566D02*
X037146Y052566D02*
G54D14*
X036897Y052565D03*
G54D11*
X037015Y052566D02*
X034008Y051565D02*
G54D14*
X033758Y051565D03*
G54D11*
X033876Y051565D02*
X037146Y051565D02*
G54D14*
X036897Y051565D03*
G54D11*
X037015Y051565D02*
X034008Y050565D02*
G54D14*
X033758Y050565D03*
G54D11*
X033876Y050565D02*
X037146Y050565D02*
G54D14*
X036897Y050565D03*
G54D11*
X037015Y050565D02*
X034008Y049565D02*
G54D14*
X033758Y049564D03*
G54D11*
X033876Y049565D02*
X037146Y049565D02*
G54D14*
X036897Y049564D03*
G54D11*
X037015Y049565D02*
X026982Y055533D02*
G54D14*
X026732Y055533D03*
G54D11*
X026850Y055533D02*
X030121Y055533D02*
G54D14*
X029871Y055533D03*
G54D11*
X029989Y055533D02*
X026982Y054532D02*
G54D14*
X026732Y054532D03*
G54D11*
X026850Y054532D02*
X030121Y054532D02*
G54D14*
X029871Y054532D03*
G54D11*
X029989Y054532D02*
X026982Y053532D02*
G54D14*
X026732Y053532D03*
G54D11*
X026850Y053532D02*
X030121Y053532D02*
G54D14*
X029871Y053532D03*
G54D11*
X029989Y053532D02*
X026982Y052532D02*
G54D14*
X026732Y052532D03*
G54D11*
X026850Y052532D02*
X030121Y052532D02*
G54D14*
X029871Y052532D03*
G54D11*
X029989Y052532D02*
X026982Y051531D02*
G54D14*
X026732Y051531D03*
G54D11*
X026850Y051531D02*
X030121Y051531D02*
G54D14*
X029871Y051531D03*
G54D11*
X029989Y051531D02*
X026982Y050531D02*
G54D14*
X026732Y050531D03*
G54D11*
X026850Y050531D02*
X030121Y050531D02*
G54D14*
X029871Y050531D03*
G54D11*
X029989Y050531D02*
X026982Y049531D02*
G54D14*
X026732Y049531D03*
G54D11*
X026850Y049531D02*
X030121Y049531D02*
G54D14*
X029871Y049531D03*
G54D11*
X029989Y049531D02*
X026968Y059568D02*
G54D14*
X026718Y059568D03*
G54D11*
X026836Y059568D02*
X030107Y059568D02*
G54D14*
X029857Y059568D03*
G54D11*
X029975Y059568D02*
X040022Y062550D02*
G54D14*
X039772Y062550D03*
G54D11*
X039890Y062550D02*
X043161Y062550D02*
G54D14*
X042911Y062550D03*
G54D11*
X043029Y062550D02*
X040022Y061550D02*
G54D14*
X039772Y061550D03*
G54D11*
X039890Y061550D02*
X043161Y061550D02*
G54D14*
X042911Y061550D03*
G54D11*
X043029Y061550D02*
X040022Y060549D02*
G54D14*
X039772Y060549D03*
G54D11*
X039890Y060549D02*
X043161Y060549D02*
G54D14*
X042911Y060549D03*
G54D11*
X043029Y060549D02*
X040022Y059549D02*
G54D14*
X039772Y059549D03*
G54D11*
X039890Y059549D02*
X043161Y059549D02*
G54D14*
X042911Y059549D03*
G54D11*
X043029Y059549D02*
X040022Y058549D02*
G54D14*
X039772Y058549D03*
G54D11*
X039890Y058549D02*
X043161Y058549D02*
G54D14*
X042911Y058549D03*
G54D11*
X043029Y058549D02*
X040022Y057549D02*
G54D14*
X039772Y057548D03*
G54D11*
X039890Y057549D02*
X043161Y057549D02*
G54D14*
X042911Y057548D03*
G54D11*
X043029Y057549D02*
X040022Y056548D02*
G54D14*
X039772Y056548D03*
G54D11*
X039890Y056548D02*
X043161Y056548D02*
G54D14*
X042911Y056548D03*
G54D11*
X043029Y056548D02*
X040022Y055575D02*
G54D14*
X039772Y055575D03*
G54D11*
X039890Y055575D02*
X043161Y055575D02*
G54D14*
X042911Y055575D03*
G54D11*
X043029Y055575D02*
X040022Y054566D02*
G54D14*
X039772Y054566D03*
G54D11*
X039890Y054566D02*
X043161Y054566D02*
G54D14*
X042911Y054566D03*
G54D11*
X043029Y054566D02*
X040022Y053566D02*
G54D14*
X039772Y053566D03*
G54D11*
X039890Y053566D02*
X043161Y053566D02*
G54D14*
X042911Y053566D03*
G54D11*
X043029Y053566D02*
X014967Y075562D02*
G54D14*
X014717Y075562D03*
G54D11*
X014836Y075562D02*
X018106Y075562D02*
G54D14*
X017856Y075562D03*
G54D11*
X017974Y075562D02*
X014967Y074562D02*
G54D14*
X014717Y074562D03*
G54D11*
X014836Y074562D02*
X018106Y074562D02*
G54D14*
X017856Y074562D03*
G54D11*
X017974Y074562D02*
X014967Y073561D02*
G54D14*
X014717Y073561D03*
G54D11*
X014836Y073561D02*
X018106Y073561D02*
G54D14*
X017856Y073561D03*
G54D11*
X017974Y073561D02*
X014967Y072561D02*
G54D14*
X014717Y072561D03*
G54D11*
X014836Y072561D02*
X018106Y072561D02*
G54D14*
X017856Y072561D03*
G54D11*
X017974Y072561D02*
X014967Y071561D02*
G54D14*
X014717Y071561D03*
G54D11*
X014836Y071561D02*
X018106Y071561D02*
G54D14*
X017856Y071561D03*
G54D11*
X017974Y071561D02*
X014967Y070561D02*
G54D14*
X014717Y070560D03*
G54D11*
X014836Y070561D02*
X018106Y070561D02*
G54D14*
X017856Y070560D03*
G54D11*
X017974Y070561D02*
X014967Y069560D02*
G54D14*
X014717Y069560D03*
G54D11*
X014836Y069560D02*
X018106Y069560D02*
G54D14*
X017856Y069560D03*
G54D11*
X017974Y069560D02*
X010209Y066347D02*
G54D15*
X009984Y066347D03*
G54D11*
X010102Y066347D02*
X010209Y065351D02*
G54D15*
X009984Y065351D03*
G54D11*
X010102Y065351D02*
X010209Y064356D02*
G54D15*
X009984Y064356D03*
G54D11*
X010102Y064356D02*
X010198Y063349D02*
G54D15*
X009973Y063349D03*
G54D11*
X010091Y063349D02*
X010198Y062353D02*
G54D15*
X009973Y062353D03*
G54D11*
X010091Y062353D02*
X010559Y065844D02*
G54D16*
X010334Y065844D03*
G54D11*
X010452Y065844D02*
X011217Y067027D02*
G54D17*
X010717Y067027D03*
G54D11*
X011114Y067027D02*
X010559Y064849D02*
G54D16*
X010334Y064849D03*
G54D11*
X010452Y064849D02*
X010559Y063853D02*
G54D16*
X010334Y063853D03*
G54D11*
X010452Y063853D02*
X010548Y062846D02*
G54D15*
X010323Y062846D03*
G54D11*
X010441Y062846D02*
X010548Y061851D02*
G54D15*
X010323Y061851D03*
G54D11*
X010441Y061851D02*
X047952Y060513D02*
G54D15*
X047727Y060513D03*
G54D11*
X047845Y060513D02*
X047952Y059518D02*
G54D15*
X047727Y059518D03*
G54D11*
X047845Y059518D02*
X047952Y058522D02*
G54D15*
X047727Y058522D03*
G54D11*
X047845Y058522D02*
X047941Y057515D02*
G54D15*
X047716Y057515D03*
G54D11*
X047834Y057515D02*
X047941Y056520D02*
G54D15*
X047716Y056520D03*
G54D11*
X047834Y056520D02*
X048302Y060011D02*
G54D16*
X048077Y060011D03*
G54D11*
X048195Y060011D02*
X048960Y061193D02*
G54D17*
X048460Y061193D03*
G54D11*
X048857Y061193D02*
X048302Y059016D02*
G54D16*
X048077Y059016D03*
G54D11*
X048195Y059016D02*
X048302Y058020D02*
G54D16*
X048077Y058020D03*
G54D11*
X048195Y058020D02*
X048291Y057013D02*
G54D15*
X048066Y057013D03*
G54D11*
X048184Y057013D02*
X048291Y056018D02*
G54D15*
X048066Y056018D03*
G54D11*
X048184Y056018D02*
X011923Y075559D02*
G54D13*
X012223Y075559D03*
G54D11*
X012050Y075559D02*
X009721Y075579D02*
G54D13*
X010021Y075579D03*
G54D11*
X009847Y075579D02*
X010043Y074010D02*
G54D12*
X010043Y073587D03*
G54D11*
X010043Y073817D02*
X010034Y072005D02*
G54D18*
X010034Y071582D03*
G54D11*
X010034Y071812D02*
X048490Y080767D02*
G54D19*
X049140Y080767D03*
G54D11*
X048598Y080767D02*
X048508Y046235D02*
G54D20*
X049158Y046236D03*
G54D11*
X048616Y046235D02*
X004502Y080790D02*
G54D19*
X005152Y080790D03*
G54D11*
X004610Y080790D02*
X004508Y046224D02*
G54D20*
X005158Y046224D03*
G54D11*
X004615Y046224D02*
X012184Y074005D02*
G54D12*
X012184Y073581D03*
G54D11*
X012184Y073812D02*
X025709Y077410D02*
G54D12*
X025709Y076987D03*
G54D11*
X025709Y077218D02*
X012175Y071999D02*
G54D18*
X012175Y071576D03*
G54D11*
X012175Y071807D02*
X011874Y069496D02*
G54D13*
X012174Y069496D03*
G54D11*
X012000Y069496D02*
X009721Y069467D02*
G54D13*
X010021Y069467D03*
G54D11*
X009847Y069467D02*
X020946Y075551D02*
G54D14*
X020696Y075550D03*
G54D11*
X020814Y075551D02*
X024085Y075551D02*
G54D14*
X023835Y075550D03*
G54D11*
X023953Y075551D02*
X020946Y074550D02*
G54D14*
X020696Y074550D03*
G54D11*
X020814Y074550D02*
X024085Y074550D02*
G54D14*
X023835Y074550D03*
G54D11*
X023953Y074550D02*
X020946Y073550D02*
G54D14*
X020696Y073550D03*
G54D11*
X020814Y073550D02*
X024085Y073550D02*
G54D14*
X023835Y073550D03*
G54D11*
X023953Y073550D02*
X020946Y072550D02*
G54D14*
X020696Y072550D03*
G54D11*
X020814Y072550D02*
X024085Y072550D02*
G54D14*
X023835Y072550D03*
G54D11*
X023953Y072550D02*
M02*