%
M48
M72
T01C0.046
T02C0.035
T03C0.024
T04C0.080
T05C0.108
%
T01
X2.571Y7.532
T02
X2.571Y7.100
X2.571Y6.950
X2.521Y6.787
X2.683Y6.785
X3.123Y6.653
X3.123Y6.810
X2.383Y6.951
X2.383Y7.103
X2.571Y7.267
X2.571Y7.393
X3.312Y7.722
X4.275Y7.704
X4.613Y7.704
X4.782Y7.704
X4.086Y7.701
X3.125Y7.722
X2.386Y7.688
X2.213Y7.683
X1.928Y7.683
X1.928Y7.519
X1.926Y6.657
X1.924Y6.495
X3.498Y5.708
X3.264Y5.556
X3.104Y5.556
X1.724Y5.557
X1.032Y5.756
X1.722Y5.721
X1.032Y5.882
X3.687Y5.711
X4.036Y4.908
X4.172Y4.907
X4.675Y5.753
X4.622Y5.851
X4.510Y5.851
X4.510Y6.059
X4.622Y6.059
X4.613Y5.958
X4.567Y6.155
X4.671Y6.155
X4.305Y6.431
X4.155Y6.433
X4.486Y5.956
X4.573Y5.757
T03
X1.470Y6.653
X1.784Y6.653
X1.470Y6.553
X1.784Y6.553
X1.470Y6.452
X1.784Y6.452
X1.470Y6.352
X1.784Y6.352
X1.470Y6.252
X1.784Y6.252
X1.470Y6.152
X1.784Y6.152
X1.470Y6.052
X1.784Y6.052
X1.233Y5.555
X1.546Y5.555
X1.233Y5.455
X1.546Y5.455
X1.233Y5.355
X1.546Y5.355
X1.233Y5.255
X1.546Y5.255
X1.233Y5.155
X1.546Y5.155
X1.233Y5.055
X1.546Y5.055
X1.233Y4.955
X1.546Y4.955
X1.233Y4.857
X1.546Y4.857
X2.072Y6.654
X2.386Y6.654
X2.072Y6.554
X2.386Y6.554
X2.072Y6.454
X2.386Y6.454
X2.072Y6.354
X2.386Y6.354
X2.072Y6.254
X2.386Y6.254
X2.072Y6.154
X2.386Y6.154
X2.072Y6.054
X2.386Y6.054
X2.072Y5.956
X2.386Y5.956
X2.672Y6.654
X2.986Y6.654
X2.672Y6.554
X2.986Y6.554
X2.672Y6.454
X2.986Y6.454
X2.672Y6.354
X2.986Y6.354
X2.672Y6.254
X2.986Y6.254
X2.672Y6.154
X2.986Y6.154
X2.672Y6.054
X2.986Y6.054
X2.996Y7.557
X3.310Y7.557
X2.996Y7.457
X3.310Y7.457
X2.996Y7.357
X3.310Y7.357
X2.996Y7.257
X3.310Y7.257
X2.996Y7.157
X3.310Y7.157
X2.996Y7.057
X3.310Y7.057
X2.996Y6.957
X3.310Y6.957
X3.769Y7.554
X4.083Y7.554
X3.769Y7.454
X4.083Y7.454
X3.769Y7.354
X4.083Y7.354
X3.769Y7.254
X4.083Y7.254
X3.769Y7.154
X4.083Y7.154
X3.769Y7.054
X4.083Y7.054
X3.769Y6.954
X4.083Y6.954
X4.470Y7.554
X4.784Y7.554
X4.470Y7.454
X4.784Y7.454
X4.470Y7.354
X4.784Y7.354
X4.470Y7.254
X4.784Y7.254
X4.470Y7.154
X4.784Y7.154
X4.470Y7.054
X4.784Y7.054
X4.470Y6.954
X4.784Y6.954
X3.376Y5.557
X3.689Y5.557
X3.376Y5.457
X3.689Y5.457
X3.376Y5.357
X3.689Y5.357
X3.376Y5.257
X3.689Y5.257
X3.376Y5.157
X3.689Y5.157
X3.376Y5.056
X3.689Y5.056
X3.376Y4.956
X3.689Y4.956
X2.673Y5.553
X2.987Y5.553
X2.673Y5.453
X2.987Y5.453
X2.673Y5.353
X2.987Y5.353
X2.673Y5.253
X2.987Y5.253
X2.673Y5.153
X2.987Y5.153
X2.673Y5.053
X2.987Y5.053
X2.673Y4.953
X2.987Y4.953
X2.672Y5.957
X2.986Y5.957
X3.977Y6.255
X4.291Y6.255
X3.977Y6.155
X4.291Y6.155
X3.977Y6.055
X4.291Y6.055
X3.977Y5.955
X4.291Y5.955
X3.977Y5.855
X4.291Y5.855
X3.977Y5.755
X4.291Y5.755
X3.977Y5.655
X4.291Y5.655
X3.977Y5.558
X4.291Y5.558
X3.977Y5.457
X4.291Y5.457
X3.977Y5.357
X4.291Y5.357
X1.472Y7.556
X1.785Y7.556
X1.472Y7.456
X1.785Y7.456
X1.472Y7.356
X1.785Y7.356
X1.472Y7.256
X1.785Y7.256
X1.472Y7.156
X1.785Y7.156
X1.472Y7.056
X1.785Y7.056
X1.472Y6.956
X1.785Y6.956
X0.998Y6.635
X0.998Y6.535
X0.998Y6.436
X0.997Y6.335
X0.997Y6.235
X1.033Y6.584
T04
X1.071Y6.703
T03
X1.033Y6.485
X1.033Y6.385
X1.032Y6.285
X1.032Y6.185
X4.773Y6.051
X4.773Y5.952
X4.773Y5.852
X4.771Y5.752
X4.771Y5.652
X4.808Y6.001
T04
X4.846Y6.119
T03
X4.808Y5.902
X4.808Y5.802
X4.806Y5.701
X4.806Y5.602
T02
X1.222Y7.556
X1.002Y7.558
T01
X1.004Y7.359
X1.003Y7.158
T05
X4.914Y8.077
X4.916Y4.624
X0.515Y8.079
X0.516Y4.622
T01
X1.218Y7.358
X2.571Y7.699
X1.218Y7.158
T02
X1.218Y6.950
X1.002Y6.947
T03
X2.069Y7.555
X2.383Y7.555
X2.069Y7.455
X2.383Y7.455
X2.069Y7.355
X2.383Y7.355
X2.069Y7.255
X2.383Y7.255
T00
M30