%FSLAX24Y24*%
%MOIN*%
%ADD10C,0.01389*%
%ADD11C,0.05000*%
%ADD12C,0.08471*%
%ADD13C,0.06000*%
%ADD14C,0.05003*%
%ADD15C,0.04500*%
%ADD16C,0.04499*%
%ADD17C,0.10001*%
%ADD18C,0.08469*%
%ADD19C,0.13000*%
%ADD20C,0.13001*%
%ADD21C,0.01000*%
%ADD22C,0.06500*%
%ADD23C,0.07000*%
%ADD24C,0.05500*%
%ADD25C,0.12500*%
%ADD26C,0.10000*%
G01*
G54D10*
X043242Y062552D02*
G54D22*
X042917Y062552D03*
G54D10*
X040099Y062552D02*
G54D22*
X039774Y062552D03*
G54D10*
X043406Y064306D02*
G54D23*
X043056Y064306D03*
G54D10*
X041876Y064306D02*
G54D23*
X041526Y064306D03*
G54D10*
X037225Y057106D02*
G54D23*
X036875Y057106D03*
G54D10*
X040720Y049074D02*
G54D23*
X040370Y049074D03*
G54D10*
X042086Y049051D02*
G54D23*
X041736Y049051D03*
G54D10*
X035278Y057106D02*
G54D23*
X034928Y057106D03*
G54D10*
X031576Y066505D02*
G54D23*
X031226Y066505D03*
G54D10*
X031576Y068102D02*
G54D23*
X031226Y068102D03*
G54D10*
X027178Y067847D02*
G54D23*
X026828Y067847D03*
G54D10*
X025581Y067870D02*
G54D23*
X025231Y067870D03*
G54D10*
X017595Y055556D02*
G54D23*
X017245Y055556D03*
G54D10*
X017572Y057199D02*
G54D23*
X017222Y057199D03*
G54D10*
X010673Y057569D02*
G54D23*
X010323Y057569D03*
G54D10*
X010673Y058819D02*
G54D23*
X010323Y058819D03*
G54D10*
X019562Y064954D02*
G54D23*
X019212Y064954D03*
G54D10*
X019609Y066551D02*
G54D23*
X019259Y066551D03*
G54D10*
X024192Y071042D02*
G54D23*
X023842Y071042D03*
G54D10*
X026069Y070995D02*
G54D23*
X025719Y070995D03*
G54D10*
X026067Y072662D02*
G54D23*
X025717Y072662D03*
G54D10*
X026067Y073935D02*
G54D23*
X025717Y073935D03*
G54D10*
X012526Y069491D02*
G54D23*
X012176Y069491D03*
G54D10*
X010373Y069468D02*
G54D23*
X010023Y069468D03*
G54D10*
X010373Y075579D02*
G54D23*
X010023Y075579D03*
G54D10*
X012572Y075556D02*
G54D23*
X012222Y075556D03*
G54D10*
X019632Y075185D02*
G54D23*
X019282Y075185D03*
G54D10*
X019655Y076829D02*
G54D23*
X019305Y076829D03*
G54D10*
X022479Y076829D02*
G54D23*
X022129Y076829D03*
G54D10*
X024239Y076852D02*
G54D23*
X023889Y076852D03*
G54D10*
X031600Y077245D02*
G54D23*
X031250Y077245D03*
G54D10*
X033498Y077222D02*
G54D23*
X033148Y077222D03*
G54D10*
X041229Y077014D02*
G54D23*
X040879Y077014D03*
G54D10*
X043104Y077037D02*
G54D23*
X042754Y077037D03*
G54D10*
X046507Y077037D02*
G54D23*
X046157Y077037D03*
G54D10*
X048174Y077037D02*
G54D23*
X047824Y077037D03*
G54D10*
X045998Y061551D02*
G54D23*
X045648Y061551D03*
G54D10*
X047063Y061551D02*
G54D23*
X046713Y061551D03*
G54D10*
X048010Y060527D02*
G54D24*
X047735Y060527D03*
G54D10*
X049089Y061204D02*
G54D25*
X048464Y061204D03*
G54D10*
X048357Y060006D02*
G54D24*
X048082Y060006D03*
G54D10*
X047993Y059502D02*
G54D24*
X047718Y059502D03*
G54D10*
X048357Y059016D02*
G54D24*
X048082Y059016D03*
G54D10*
X047993Y058513D02*
G54D24*
X047718Y058513D03*
G54D10*
X048365Y058003D02*
G54D24*
X048090Y058003D03*
G54D10*
X047983Y057517D02*
G54D24*
X047708Y057517D03*
G54D10*
X048331Y057014D02*
G54D24*
X048056Y057014D03*
G54D10*
X047983Y056510D02*
G54D24*
X047708Y056510D03*
G54D10*
X048348Y056024D02*
G54D24*
X048073Y056024D03*
G54D10*
X046577Y060602D02*
G54D23*
X046227Y060602D03*
G54D10*
X045465Y060602D02*
G54D23*
X045115Y060602D03*
G54D10*
X045211Y059583D02*
G54D23*
X044861Y059583D03*
G54D10*
X046484Y059583D02*
G54D23*
X046134Y059583D03*
G54D10*
X046553Y058519D02*
G54D23*
X046203Y058519D03*
G54D10*
X047086Y057523D02*
G54D23*
X046736Y057523D03*
G54D10*
X046090Y057569D02*
G54D23*
X045740Y057569D03*
G54D10*
X045442Y058495D02*
G54D23*
X045092Y058495D03*
G54D10*
X026212Y075330D02*
G54D26*
X025712Y075330D03*
G54D10*
X026194Y076979D02*
G54D26*
X025694Y076979D03*
G54D10*
X012670Y073594D02*
G54D26*
X012170Y073594D03*
G54D10*
X012670Y071597D02*
G54D26*
X012170Y071597D03*
G54D10*
X010534Y071580D02*
G54D26*
X010034Y071580D03*
G54D10*
X010552Y073576D02*
G54D26*
X010052Y073576D03*
G54D10*
X026067Y069491D02*
G54D23*
X025717Y069491D03*
G54D10*
X024192Y069514D02*
G54D23*
X023842Y069514D03*
G54D10*
X032987Y055555D02*
G54D23*
X032637Y055555D03*
G54D10*
X031391Y055556D02*
G54D23*
X031041Y055556D03*
G54D10*
X043242Y061538D02*
G54D22*
X042917Y061538D03*
G54D10*
X040099Y061538D02*
G54D22*
X039774Y061538D03*
G54D10*
X043242Y060548D02*
G54D22*
X042917Y060548D03*
G54D10*
X040099Y060548D02*
G54D22*
X039774Y060548D03*
G54D10*
X043242Y059544D02*
G54D22*
X042917Y059544D03*
G54D10*
X040099Y059544D02*
G54D22*
X039774Y059544D03*
G54D10*
X043242Y058537D02*
G54D22*
X042917Y058537D03*
G54D10*
X040099Y058537D02*
G54D22*
X039774Y058537D03*
G54D10*
X043242Y057547D02*
G54D22*
X042917Y057547D03*
G54D10*
X040099Y057547D02*
G54D22*
X039774Y057547D03*
G54D10*
X043224Y056540D02*
G54D22*
X042899Y056540D03*
G54D10*
X040082Y056540D02*
G54D22*
X039757Y056540D03*
G54D10*
X043242Y055585D02*
G54D22*
X042917Y055585D03*
G54D10*
X040099Y055585D02*
G54D22*
X039774Y055585D03*
G54D10*
X030186Y066557D02*
G54D22*
X029861Y066557D03*
G54D10*
X027044Y066557D02*
G54D22*
X026719Y066557D03*
G54D10*
X030186Y065543D02*
G54D22*
X029861Y065543D03*
G54D10*
X027044Y065543D02*
G54D22*
X026719Y065543D03*
G54D10*
X030186Y064553D02*
G54D22*
X029861Y064553D03*
G54D10*
X027044Y064553D02*
G54D22*
X026719Y064553D03*
G54D10*
X030186Y063548D02*
G54D22*
X029861Y063548D03*
G54D10*
X027044Y063548D02*
G54D22*
X026719Y063548D03*
G54D10*
X030186Y062541D02*
G54D22*
X029861Y062541D03*
G54D10*
X027044Y062541D02*
G54D22*
X026719Y062541D03*
G54D10*
X030186Y061551D02*
G54D22*
X029861Y061551D03*
G54D10*
X027044Y061551D02*
G54D22*
X026719Y061551D03*
G54D10*
X030169Y060544D02*
G54D22*
X029844Y060544D03*
G54D10*
X027026Y060544D02*
G54D22*
X026701Y060544D03*
G54D10*
X030186Y059589D02*
G54D22*
X029861Y059589D03*
G54D10*
X027044Y059589D02*
G54D22*
X026719Y059589D03*
G54D10*
X024190Y066534D02*
G54D22*
X023865Y066534D03*
G54D10*
X021048Y066534D02*
G54D22*
X020723Y066534D03*
G54D10*
X024190Y065520D02*
G54D22*
X023865Y065520D03*
G54D10*
X021048Y065520D02*
G54D22*
X020723Y065520D03*
G54D10*
X024190Y064530D02*
G54D22*
X023865Y064530D03*
G54D10*
X021048Y064530D02*
G54D22*
X020723Y064530D03*
G54D10*
X024190Y063525D02*
G54D22*
X023865Y063525D03*
G54D10*
X021048Y063525D02*
G54D22*
X020723Y063525D03*
G54D10*
X024190Y062518D02*
G54D22*
X023865Y062518D03*
G54D10*
X021048Y062518D02*
G54D22*
X020723Y062518D03*
G54D10*
X024190Y061528D02*
G54D22*
X023865Y061528D03*
G54D10*
X021048Y061528D02*
G54D22*
X020723Y061528D03*
G54D10*
X024173Y060521D02*
G54D22*
X023848Y060521D03*
G54D10*
X021031Y060521D02*
G54D22*
X020706Y060521D03*
G54D10*
X024190Y059566D02*
G54D22*
X023865Y059566D03*
G54D10*
X021048Y059566D02*
G54D22*
X020723Y059566D03*
G54D10*
X015782Y055533D02*
G54D22*
X015457Y055533D03*
G54D10*
X012640Y055533D02*
G54D22*
X012315Y055533D03*
G54D10*
X015782Y054519D02*
G54D22*
X015457Y054519D03*
G54D10*
X012640Y054519D02*
G54D22*
X012315Y054519D03*
G54D10*
X015782Y053529D02*
G54D22*
X015457Y053529D03*
G54D10*
X012640Y053529D02*
G54D22*
X012315Y053529D03*
G54D10*
X015782Y052524D02*
G54D22*
X015457Y052524D03*
G54D10*
X012640Y052524D02*
G54D22*
X012315Y052524D03*
G54D10*
X015782Y051517D02*
G54D22*
X015457Y051517D03*
G54D10*
X012640Y051517D02*
G54D22*
X012315Y051517D03*
G54D10*
X015782Y050528D02*
G54D22*
X015457Y050528D03*
G54D10*
X012640Y050528D02*
G54D22*
X012315Y050528D03*
G54D10*
X015765Y049521D02*
G54D22*
X015440Y049521D03*
G54D10*
X012622Y049521D02*
G54D22*
X012297Y049521D03*
G54D10*
X015782Y048566D02*
G54D22*
X015457Y048566D03*
G54D10*
X012640Y048566D02*
G54D22*
X012315Y048566D03*
G54D10*
X043242Y054578D02*
G54D22*
X042917Y054578D03*
G54D10*
X040099Y054578D02*
G54D22*
X039774Y054578D03*
G54D10*
X043224Y053553D02*
G54D22*
X042899Y053553D03*
G54D10*
X040082Y053553D02*
G54D22*
X039757Y053553D03*
G54D10*
X037217Y055548D02*
G54D22*
X036892Y055548D03*
G54D10*
X034075Y055548D02*
G54D22*
X033750Y055548D03*
G54D10*
X037217Y054544D02*
G54D22*
X036892Y054544D03*
G54D10*
X034075Y054544D02*
G54D22*
X033750Y054544D03*
G54D10*
X037217Y053537D02*
G54D22*
X036892Y053537D03*
G54D10*
X034075Y053537D02*
G54D22*
X033750Y053537D03*
G54D10*
X037217Y052547D02*
G54D22*
X036892Y052547D03*
G54D10*
X034075Y052547D02*
G54D22*
X033750Y052547D03*
G54D10*
X037200Y051540D02*
G54D22*
X036875Y051540D03*
G54D10*
X034057Y051540D02*
G54D22*
X033732Y051540D03*
G54D10*
X037217Y050585D02*
G54D22*
X036892Y050585D03*
G54D10*
X034075Y050585D02*
G54D22*
X033750Y050585D03*
G54D10*
X037217Y049578D02*
G54D22*
X036892Y049578D03*
G54D10*
X034075Y049578D02*
G54D22*
X033750Y049578D03*
G54D10*
X030186Y055514D02*
G54D22*
X029861Y055514D03*
G54D10*
X027043Y055514D02*
G54D22*
X026718Y055514D03*
G54D10*
X030186Y054509D02*
G54D22*
X029861Y054509D03*
G54D10*
X027043Y054509D02*
G54D22*
X026718Y054509D03*
G54D10*
X030186Y053502D02*
G54D22*
X029861Y053502D03*
G54D10*
X027043Y053502D02*
G54D22*
X026718Y053502D03*
G54D10*
X030186Y052512D02*
G54D22*
X029861Y052512D03*
G54D10*
X027043Y052512D02*
G54D22*
X026718Y052512D03*
G54D10*
X030168Y051505D02*
G54D22*
X029843Y051505D03*
G54D10*
X027026Y051505D02*
G54D22*
X026701Y051505D03*
G54D10*
X030186Y050550D02*
G54D22*
X029861Y050550D03*
G54D10*
X027043Y050550D02*
G54D22*
X026718Y050550D03*
G54D10*
X030186Y049543D02*
G54D22*
X029861Y049543D03*
G54D10*
X027043Y049543D02*
G54D22*
X026718Y049543D03*
G54D10*
X018172Y066509D02*
G54D22*
X017847Y066509D03*
G54D10*
X015030Y066509D02*
G54D22*
X014705Y066509D03*
G54D10*
X018172Y065504D02*
G54D22*
X017847Y065504D03*
G54D10*
X015030Y065504D02*
G54D22*
X014705Y065504D03*
G54D10*
X018172Y064497D02*
G54D22*
X017847Y064497D03*
G54D10*
X015030Y064497D02*
G54D22*
X014705Y064497D03*
G54D10*
X018172Y063508D02*
G54D22*
X017847Y063508D03*
G54D10*
X015030Y063508D02*
G54D22*
X014705Y063508D03*
G54D10*
X018155Y062501D02*
G54D22*
X017830Y062501D03*
G54D10*
X015012Y062501D02*
G54D22*
X014687Y062501D03*
G54D10*
X018172Y061546D02*
G54D22*
X017847Y061546D03*
G54D10*
X015030Y061546D02*
G54D22*
X014705Y061546D03*
G54D10*
X018172Y060538D02*
G54D22*
X017847Y060538D03*
G54D10*
X015030Y060538D02*
G54D22*
X014705Y060538D03*
G54D10*
X018190Y075555D02*
G54D22*
X017865Y075555D03*
G54D10*
X015047Y075555D02*
G54D22*
X014722Y075555D03*
G54D10*
X018190Y074551D02*
G54D22*
X017865Y074551D03*
G54D10*
X015047Y074551D02*
G54D22*
X014722Y074551D03*
G54D10*
X018190Y073544D02*
G54D22*
X017865Y073544D03*
G54D10*
X015047Y073544D02*
G54D22*
X014722Y073544D03*
G54D10*
X018190Y072554D02*
G54D22*
X017865Y072554D03*
G54D10*
X015047Y072554D02*
G54D22*
X014722Y072554D03*
G54D10*
X024168Y075555D02*
G54D22*
X023843Y075555D03*
G54D10*
X021025Y075555D02*
G54D22*
X020700Y075555D03*
G54D10*
X024168Y074551D02*
G54D22*
X023843Y074551D03*
G54D10*
X021025Y074551D02*
G54D22*
X020700Y074551D03*
G54D10*
X024168Y073544D02*
G54D22*
X023843Y073544D03*
G54D10*
X021025Y073544D02*
G54D22*
X020700Y073544D03*
G54D10*
X024168Y072554D02*
G54D22*
X023843Y072554D03*
G54D10*
X021025Y072554D02*
G54D22*
X020700Y072554D03*
G54D10*
X018172Y071547D02*
G54D22*
X017847Y071547D03*
G54D10*
X015030Y071547D02*
G54D22*
X014705Y071547D03*
G54D10*
X018190Y070592D02*
G54D22*
X017865Y070592D03*
G54D10*
X015047Y070592D02*
G54D22*
X014722Y070592D03*
G54D10*
X018190Y069585D02*
G54D22*
X017865Y069585D03*
G54D10*
X015047Y069585D02*
G54D22*
X014722Y069585D03*
G54D10*
X033427Y075555D02*
G54D22*
X033102Y075555D03*
G54D10*
X030285Y075555D02*
G54D22*
X029960Y075555D03*
G54D10*
X033427Y074551D02*
G54D22*
X033102Y074551D03*
G54D10*
X030285Y074551D02*
G54D22*
X029960Y074551D03*
G54D10*
X033427Y073544D02*
G54D22*
X033102Y073544D03*
G54D10*
X030285Y073544D02*
G54D22*
X029960Y073544D03*
G54D10*
X033427Y072554D02*
G54D22*
X033102Y072554D03*
G54D10*
X030285Y072554D02*
G54D22*
X029960Y072554D03*
G54D10*
X033410Y071547D02*
G54D22*
X033085Y071547D03*
G54D10*
X030267Y071547D02*
G54D22*
X029942Y071547D03*
G54D10*
X033427Y070592D02*
G54D22*
X033102Y070592D03*
G54D10*
X030285Y070592D02*
G54D22*
X029960Y070592D03*
G54D10*
X033427Y069585D02*
G54D22*
X033102Y069585D03*
G54D10*
X030285Y069585D02*
G54D22*
X029960Y069585D03*
G54D10*
X041159Y075532D02*
G54D22*
X040834Y075532D03*
G54D10*
X038016Y075532D02*
G54D22*
X037691Y075532D03*
G54D10*
X041159Y074527D02*
G54D22*
X040834Y074527D03*
G54D10*
X038016Y074527D02*
G54D22*
X037691Y074527D03*
G54D10*
X041159Y073520D02*
G54D22*
X040834Y073520D03*
G54D10*
X038016Y073520D02*
G54D22*
X037691Y073520D03*
G54D10*
X041159Y072531D02*
G54D22*
X040834Y072531D03*
G54D10*
X038016Y072531D02*
G54D22*
X037691Y072531D03*
G54D10*
X041141Y071524D02*
G54D22*
X040816Y071524D03*
G54D10*
X037999Y071524D02*
G54D22*
X037674Y071524D03*
G54D10*
X041159Y070569D02*
G54D22*
X040834Y070569D03*
G54D10*
X038016Y070569D02*
G54D22*
X037691Y070569D03*
G54D10*
X041159Y069562D02*
G54D22*
X040834Y069562D03*
G54D10*
X038016Y069562D02*
G54D22*
X037691Y069562D03*
G54D10*
X048173Y075509D02*
G54D22*
X047848Y075509D03*
G54D10*
X045030Y075509D02*
G54D22*
X044705Y075509D03*
G54D10*
X048173Y074504D02*
G54D22*
X047848Y074504D03*
G54D10*
X045030Y074504D02*
G54D22*
X044705Y074504D03*
G54D10*
X048173Y073497D02*
G54D22*
X047848Y073497D03*
G54D10*
X045030Y073497D02*
G54D22*
X044705Y073497D03*
G54D10*
X048173Y072508D02*
G54D22*
X047848Y072508D03*
G54D10*
X045030Y072508D02*
G54D22*
X044705Y072508D03*
G54D10*
X048155Y071500D02*
G54D22*
X047830Y071500D03*
G54D10*
X045013Y071500D02*
G54D22*
X044688Y071500D03*
G54D10*
X048173Y070545D02*
G54D22*
X047848Y070545D03*
G54D10*
X045030Y070545D02*
G54D22*
X044705Y070545D03*
G54D10*
X048173Y069538D02*
G54D22*
X047848Y069538D03*
G54D10*
X045030Y069538D02*
G54D22*
X044705Y069538D03*
G54D10*
X010267Y066343D02*
G54D24*
X009992Y066343D03*
G54D10*
X011346Y067020D02*
G54D25*
X010721Y067020D03*
G54D10*
X010614Y065822D02*
G54D24*
X010339Y065822D03*
G54D10*
X010250Y065318D02*
G54D24*
X009975Y065318D03*
G54D10*
X010614Y064832D02*
G54D24*
X010339Y064832D03*
G54D10*
X010250Y064329D02*
G54D24*
X009975Y064329D03*
G54D10*
X010622Y063819D02*
G54D24*
X010347Y063819D03*
G54D10*
X010240Y063333D02*
G54D24*
X009965Y063333D03*
G54D10*
X010588Y062830D02*
G54D24*
X010313Y062830D03*
G54D10*
X010240Y062326D02*
G54D24*
X009965Y062326D03*
G54D10*
X010605Y061840D02*
G54D24*
X010330Y061840D03*
G54D10*
M02*