%FSLAX24Y24*%
%MOIN*%
%ADD10C,0.01389*%
%ADD11C,0.05000*%
%ADD12C,0.08471*%
%ADD13C,0.06000*%
%ADD14C,0.05003*%
%ADD15C,0.04500*%
%ADD16C,0.04499*%
%ADD17C,0.10001*%
%ADD18C,0.08469*%
%ADD19C,0.13000*%
%ADD20C,0.13001*%
%ADD21C,0.01000*%
G01*
G54D10*
G54D21*
X012176Y071576D02*
X014716Y073581D01*
X014716Y071561D02*
X017191Y072054D01*
X018441Y072054D01*
X020694Y072550D01*
X020694Y074550D02*
X023833Y073550D01*
X023832Y072550D02*
X023832Y071028D01*
X023833Y074550D02*
X025709Y073931D01*
X025709Y075319D01*
X009982Y064356D02*
X009448Y064358D01*
X009448Y067800D01*
X016097Y067800D01*
X016097Y060533D01*
X017843Y060528D01*
X010332Y063853D02*
X009066Y063854D01*
X009066Y068165D01*
X016479Y068165D01*
X016479Y062523D01*
X017843Y062506D01*
X009971Y063349D02*
X008684Y063368D01*
X008684Y068547D01*
X016844Y068547D01*
X016844Y064503D01*
X017843Y064507D01*
X017843Y061524D02*
X020723Y060537D01*
X017843Y063524D02*
X020723Y061537D01*
X017843Y065525D02*
X020723Y062537D01*
X014716Y075562D02*
X015304Y075567D01*
X015304Y072025D01*
X014124Y072025D01*
X014124Y071053D01*
X015443Y071053D01*
X017179Y068553D01*
X017179Y067279D01*
X022689Y067279D01*
X022689Y059566D01*
X023862Y059564D01*
X020694Y073550D02*
X021693Y072557D01*
X021693Y067685D01*
X024541Y067685D01*
X024541Y063542D01*
X023862Y063538D01*
X023198Y063525D01*
X023198Y061528D01*
X023862Y061537D01*
X010034Y071582D02*
X010022Y069468D01*
X012225Y075559D02*
X014716Y073581D01*
X020721Y065538D02*
X022295Y065538D01*
X022295Y058894D01*
X025038Y058894D01*
X025038Y066550D01*
X026714Y066550D01*
X020721Y064538D02*
X021948Y064538D01*
X021948Y058529D01*
X025437Y058529D01*
X025437Y065543D01*
X026714Y065543D01*
X020721Y063538D02*
X021566Y063538D01*
X021566Y058165D01*
X025819Y058165D01*
X025819Y064536D01*
X026714Y064536D01*
X029853Y064542D02*
X028939Y064542D01*
X028939Y073553D01*
X029956Y073553D01*
X029853Y063542D02*
X028545Y063542D01*
X028545Y074062D01*
X030536Y074062D01*
X030536Y072557D01*
X029956Y072557D01*
X029853Y062542D02*
X028175Y062542D01*
X028175Y075104D01*
X030929Y075104D01*
X030929Y071562D01*
X029956Y071562D01*
X029853Y061542D02*
X027804Y061542D01*
X027804Y076168D01*
X033684Y076168D01*
X033684Y072557D01*
X033095Y072557D01*
X029853Y065543D02*
X029332Y065543D01*
X029332Y071053D01*
X031323Y071053D01*
X031323Y074548D01*
X033095Y074548D01*
X033095Y073569D02*
X031948Y073569D01*
X031948Y070543D01*
X029956Y070543D01*
X009982Y066347D02*
X013539Y066347D01*
X013541Y050556D01*
X012337Y050556D01*
X010332Y065844D02*
X012920Y065827D01*
X012939Y054560D01*
X012346Y054560D01*
X009982Y065351D02*
X012353Y065351D01*
X012337Y055550D01*
X010332Y064849D02*
X011479Y064849D01*
X011462Y049548D01*
X012326Y049548D01*
X012395Y052549D02*
X011786Y052549D01*
X011786Y050057D01*
X013858Y050057D01*
X013858Y061528D01*
X014703Y061539D01*
X015464Y049548D02*
X014895Y049548D01*
X014895Y047309D01*
X006475Y047309D01*
X006475Y079254D01*
X036353Y079254D01*
X036353Y074584D01*
X037688Y074584D01*
X037690Y072543D02*
X040827Y074543D01*
X040184Y075533D01*
X040184Y075533D01*
X040183Y075533D01*
X040181Y075533D01*
X040178Y075533D01*
X040173Y075533D01*
X040166Y075533D01*
X040158Y075533D01*
X040149Y075533D01*
X040139Y075533D01*
X040127Y075533D01*
X040114Y075533D01*
X040100Y075533D01*
X040085Y075533D01*
X040069Y075533D01*
X040051Y075533D01*
X040033Y075533D01*
X040013Y075533D01*
X039992Y075533D01*
X039971Y075534D01*
X039948Y075534D01*
X039925Y075534D01*
X039900Y075534D01*
X039875Y075534D01*
X039849Y075534D01*
X039822Y075534D01*
X039794Y075534D01*
X039766Y075534D01*
X039737Y075535D01*
X039707Y075535D01*
X039676Y075535D01*
X039645Y075535D01*
X039613Y075535D01*
X039581Y075535D01*
X039548Y075535D01*
X039515Y075536D01*
X039481Y075536D01*
X039447Y075536D01*
X039412Y075536D01*
X039377Y075536D01*
X039341Y075536D01*
X039306Y075536D01*
X039270Y075537D01*
X039233Y075537D01*
X039197Y075537D01*
X039160Y075537D01*
X039123Y075537D01*
X039086Y075537D01*
X039048Y075538D01*
X039011Y075538D01*
X038974Y075538D01*
X038936Y075538D01*
X038899Y075538D01*
X038861Y075538D01*
X038824Y075539D01*
X038787Y075539D01*
X038750Y075539D01*
X038713Y075539D01*
X038676Y075539D01*
X038639Y075539D01*
X038603Y075540D01*
X038567Y075540D01*
X038531Y075540D01*
X038496Y075540D01*
X038460Y075540D01*
X038426Y075540D01*
X038391Y075541D01*
X038358Y075541D01*
X038324Y075541D01*
X038291Y075541D01*
X038259Y075541D01*
X038227Y075541D01*
X038196Y075541D01*
X038166Y075542D01*
X038136Y075542D01*
X038107Y075542D01*
X038078Y075542D01*
X038051Y075542D01*
X038024Y075542D01*
X037997Y075542D01*
X037972Y075542D01*
X037948Y075543D01*
X037924Y075543D01*
X037902Y075543D01*
X037880Y075543D01*
X037859Y075543D01*
X037840Y075543D01*
X037821Y075543D01*
X037804Y075543D01*
X037787Y075543D01*
X037772Y075543D01*
X037758Y075543D01*
X037745Y075543D01*
X037734Y075543D01*
X037723Y075544D01*
X037714Y075544D01*
X037706Y075544D01*
X037700Y075544D01*
X037695Y075544D01*
X037691Y075544D01*
X037689Y075544D01*
X037688Y071543D02*
X035913Y071543D01*
X035913Y078872D01*
X006857Y078872D01*
X006857Y047674D01*
X014519Y047674D01*
X014519Y052587D01*
X015487Y052587D01*
X015487Y053549D02*
X014212Y053549D01*
X014212Y048038D01*
X007227Y048038D01*
X007227Y078496D01*
X035439Y078496D01*
X035439Y071065D01*
X039420Y071065D01*
X039420Y072917D01*
X040827Y073559D01*
X014702Y062525D02*
X015231Y062525D01*
X015231Y057824D01*
X027337Y057824D01*
X027337Y076574D01*
X034114Y076574D01*
X034114Y068438D01*
X040832Y068438D01*
X040832Y069542D01*
X010332Y063854D02*
X010850Y063854D01*
X010850Y061320D01*
X008124Y061320D01*
X008124Y077830D01*
X034478Y077830D01*
X034478Y068820D01*
X040225Y068820D01*
X040225Y070070D01*
X040827Y070542D01*
X009982Y064356D02*
X011232Y064356D01*
X011232Y060955D01*
X007725Y060955D01*
X007725Y078143D01*
X034982Y078143D01*
X034982Y070070D01*
X039478Y070070D01*
X040827Y071542D01*
X023832Y073550D02*
X025709Y072669D01*
X025709Y071010D01*
X040830Y072542D02*
X042731Y072542D01*
X042731Y075556D01*
X044705Y075556D01*
X037691Y073543D02*
X038217Y073543D01*
X038217Y074954D01*
X036712Y074954D01*
X036712Y078235D01*
X046631Y078235D01*
X046631Y071528D01*
X047844Y071528D01*
X037691Y070542D02*
X039420Y070542D01*
X039883Y071019D01*
X039883Y072871D01*
X040462Y073125D01*
X041319Y073125D01*
X041319Y074005D01*
X040590Y074005D01*
X038356Y072593D01*
X038356Y072060D01*
X037036Y072060D01*
X037036Y073102D01*
X038055Y073102D01*
X038610Y073519D01*
X038610Y075162D01*
X037129Y075162D01*
X037129Y077842D01*
X046232Y077842D01*
X046232Y071065D01*
X048321Y071065D01*
X048321Y071933D01*
X046996Y071933D01*
X046996Y074537D01*
X047844Y074537D01*
X044705Y074543D02*
X045833Y074543D01*
X045833Y070556D01*
X047867Y070565D02*
X044705Y070565D01*
X029855Y065543D02*
X031700Y065543D01*
X031700Y056563D01*
X026700Y056563D01*
X026700Y055555D01*
X029869Y054554D01*
X029855Y061542D02*
X030902Y061542D01*
X030902Y057188D01*
X025485Y057188D01*
X025485Y055012D01*
X027325Y055018D01*
X027325Y054098D01*
X025989Y054098D01*
X025971Y052518D01*
X026730Y052508D01*
X029869Y051507D01*
X015485Y054547D02*
X026730Y054547D01*
X015462Y051546D02*
X026730Y051546D01*
X015465Y048573D02*
X025884Y048577D01*
X025884Y048577D01*
X025884Y048577D01*
X025884Y048580D01*
X025884Y048583D01*
X025884Y048588D01*
X025884Y048595D01*
X025884Y048603D01*
X025884Y048612D01*
X025884Y048622D01*
X025884Y048634D01*
X025884Y048647D01*
X025884Y048661D01*
X025884Y048676D01*
X025884Y048692D01*
X025884Y048710D01*
X025883Y048729D01*
X025883Y048748D01*
X025883Y048769D01*
X025883Y048790D01*
X025883Y048813D01*
X025883Y048837D01*
X025882Y048861D01*
X025882Y048886D01*
X025882Y048913D01*
X025882Y048940D01*
X025882Y048967D01*
X025882Y048996D01*
X025881Y049025D01*
X025881Y049055D01*
X025881Y049085D01*
X025881Y049117D01*
X025880Y049148D01*
X025880Y049181D01*
X025880Y049214D01*
X025880Y049247D01*
X025880Y049281D01*
X025879Y049315D01*
X025879Y049350D01*
X025879Y049385D01*
X025879Y049421D01*
X025878Y049457D01*
X025878Y049493D01*
X025878Y049529D01*
X025878Y049566D01*
X025877Y049603D01*
X025877Y049640D01*
X025877Y049677D01*
X025877Y049714D01*
X025876Y049752D01*
X025876Y049789D01*
X025876Y049827D01*
X025876Y049864D01*
X025875Y049902D01*
X025875Y049939D01*
X025875Y049976D01*
X025874Y050014D01*
X025874Y050051D01*
X025874Y050087D01*
X025874Y050124D01*
X025873Y050160D01*
X025873Y050197D01*
X025873Y050232D01*
X025873Y050268D01*
X025872Y050303D01*
X025872Y050338D01*
X025872Y050372D01*
X025872Y050406D01*
X025872Y050440D01*
X025871Y050472D01*
X025871Y050505D01*
X025871Y050537D01*
X025871Y050568D01*
X025870Y050598D01*
X025870Y050628D01*
X025870Y050658D01*
X025870Y050686D01*
X025870Y050714D01*
X025869Y050741D01*
X025869Y050767D01*
X025869Y050792D01*
X025869Y050817D01*
X025869Y050840D01*
X025869Y050863D01*
X025868Y050884D01*
X025868Y050905D01*
X025868Y050925D01*
X025868Y050943D01*
X025868Y050961D01*
X025868Y050977D01*
X025868Y050993D01*
X025868Y051007D01*
X025867Y051020D01*
X025867Y051031D01*
X025867Y051042D01*
X025867Y051051D01*
X025867Y051059D01*
X025867Y051065D01*
X025867Y051070D01*
X025867Y051074D01*
X025867Y051076D01*
X027852Y051013D01*
X027869Y049989D01*
X030798Y050052D01*
X030809Y052060D01*
X029235Y052060D01*
X029235Y052894D01*
X029860Y053519D01*
X026730Y050531D02*
X027334Y049927D01*
X027334Y048542D01*
X032731Y048542D01*
X032731Y051598D01*
X033756Y051598D01*
X026730Y053532D02*
X029073Y053532D01*
X029530Y053988D01*
X032661Y053988D01*
X032661Y052570D01*
X033756Y052570D01*
X033756Y050579D02*
X034721Y050579D01*
X034721Y051077D01*
X038228Y051077D01*
X038228Y058056D01*
X040971Y058056D01*
X040971Y060538D01*
X039791Y060538D01*
X038438Y060538D01*
X038438Y065648D01*
X046701Y065648D01*
X046701Y070046D01*
X048796Y070046D01*
X048796Y072130D01*
X047338Y072130D01*
X047338Y073530D01*
X047836Y073530D01*
X029860Y049537D02*
X031712Y049537D01*
X031695Y051939D01*
X036122Y051939D01*
X036133Y067055D01*
X043882Y067066D01*
X043882Y071574D01*
X044675Y071574D01*
X029878Y052552D02*
X031232Y052552D01*
X031232Y052170D01*
X035624Y052176D01*
X035601Y067668D01*
X043523Y067674D01*
X043523Y072570D01*
X044704Y072570D01*
X047846Y072570D02*
X049305Y072570D01*
X049305Y064931D01*
X040485Y064931D01*
X040485Y061563D01*
X039756Y061563D01*
X044721Y073577D02*
X045450Y073577D01*
X045450Y071077D01*
X044253Y071077D01*
X044253Y066528D01*
X037464Y066528D01*
X037464Y059584D01*
X039721Y059584D01*
X045832Y070556D02*
X045832Y066042D01*
X037968Y066042D01*
X037968Y060070D01*
X040416Y060070D01*
X040416Y058577D01*
X039687Y058577D01*
X047846Y069584D02*
X047846Y065278D01*
X038957Y065278D01*
X038957Y061077D01*
X041388Y061077D01*
X041388Y057570D01*
X039791Y057570D01*
X046711Y061552D02*
X047707Y060579D01*
X042893Y060579D02*
X045669Y061552D01*
X046215Y060592D02*
X046215Y060592D01*
X046216Y060592D01*
X046217Y060591D01*
X046220Y060590D01*
X046224Y060589D01*
X046229Y060588D01*
X046234Y060586D01*
X046241Y060584D01*
X046249Y060581D01*
X046258Y060579D01*
X046267Y060576D01*
X046278Y060573D01*
X046289Y060569D01*
X046301Y060565D01*
X046314Y060561D01*
X046328Y060557D01*
X046343Y060553D01*
X046358Y060548D01*
X046374Y060543D01*
X046391Y060538D01*
X046409Y060533D01*
X046427Y060527D01*
X046446Y060521D01*
X046465Y060515D01*
X046485Y060509D01*
X046506Y060503D01*
X046527Y060496D01*
X046549Y060490D01*
X046571Y060483D01*
X046594Y060476D01*
X046617Y060469D01*
X046641Y060462D01*
X046665Y060454D01*
X046690Y060447D01*
X046715Y060439D01*
X046740Y060432D01*
X046765Y060424D01*
X046791Y060416D01*
X046817Y060408D01*
X046844Y060400D01*
X046871Y060392D01*
X046898Y060383D01*
X046925Y060375D01*
X046952Y060367D01*
X046979Y060358D01*
X047007Y060350D01*
X047035Y060342D01*
X047063Y060333D01*
X047090Y060325D01*
X047118Y060316D01*
X047146Y060308D01*
X047174Y060299D01*
X047202Y060291D01*
X047230Y060282D01*
X047258Y060274D01*
X047286Y060265D01*
X047313Y060257D01*
X047341Y060248D01*
X047368Y060240D01*
X047395Y060232D01*
X047422Y060223D01*
X047449Y060215D01*
X047475Y060207D01*
X047501Y060199D01*
X047527Y060191D01*
X047553Y060184D01*
X047578Y060176D01*
X047603Y060168D01*
X047628Y060161D01*
X047652Y060153D01*
X047675Y060146D01*
X047699Y060139D01*
X047721Y060132D01*
X047744Y060125D01*
X047765Y060119D01*
X047787Y060112D01*
X047807Y060106D01*
X047827Y060100D01*
X047847Y060094D01*
X047866Y060088D01*
X047884Y060082D01*
X047902Y060077D01*
X047918Y060072D01*
X047935Y060067D01*
X047950Y060062D01*
X047965Y060058D01*
X047978Y060054D01*
X047991Y060050D01*
X048004Y060046D01*
X048015Y060042D01*
X048026Y060039D01*
X048035Y060036D01*
X048044Y060034D01*
X048052Y060031D01*
X048058Y060029D01*
X048064Y060027D01*
X048069Y060026D01*
X048073Y060025D01*
X048076Y060024D01*
X048077Y060024D01*
X042916Y059560D02*
X045101Y060592D01*
X046132Y059584D02*
X046132Y059584D01*
X046132Y059584D01*
X046134Y059584D01*
X046136Y059584D01*
X046139Y059583D01*
X046143Y059583D01*
X046148Y059583D01*
X046154Y059583D01*
X046161Y059583D01*
X046168Y059583D01*
X046177Y059582D01*
X046186Y059582D01*
X046195Y059582D01*
X046206Y059582D01*
X046217Y059581D01*
X046229Y059581D01*
X046241Y059580D01*
X046255Y059580D01*
X046269Y059580D01*
X046283Y059579D01*
X046298Y059579D01*
X046314Y059578D01*
X046330Y059578D01*
X046347Y059577D01*
X046364Y059577D01*
X046382Y059576D01*
X046400Y059576D01*
X046418Y059575D01*
X046438Y059575D01*
X046457Y059574D01*
X046477Y059574D01*
X046497Y059573D01*
X046518Y059572D01*
X046539Y059572D01*
X046561Y059571D01*
X046582Y059571D01*
X046604Y059570D01*
X046626Y059569D01*
X046649Y059569D01*
X046672Y059568D01*
X046695Y059567D01*
X046718Y059567D01*
X046741Y059566D01*
X046764Y059565D01*
X046788Y059565D01*
X046812Y059564D01*
X046835Y059563D01*
X046859Y059563D01*
X046883Y059562D01*
X046907Y059561D01*
X046931Y059560D01*
X046955Y059560D01*
X046979Y059559D01*
X047003Y059558D01*
X047027Y059558D01*
X047051Y059557D01*
X047074Y059556D01*
X047098Y059556D01*
X047121Y059555D01*
X047145Y059554D01*
X047168Y059554D01*
X047191Y059553D01*
X047213Y059552D01*
X047236Y059552D01*
X047258Y059551D01*
X047280Y059550D01*
X047302Y059550D01*
X047323Y059549D01*
X047344Y059548D01*
X047365Y059548D01*
X047385Y059547D01*
X047405Y059547D01*
X047425Y059546D01*
X047444Y059546D01*
X047462Y059545D01*
X047481Y059545D01*
X047498Y059544D01*
X047516Y059544D01*
X047532Y059543D01*
X047549Y059543D01*
X047564Y059542D01*
X047579Y059542D01*
X047594Y059541D01*
X047608Y059541D01*
X047621Y059540D01*
X047633Y059540D01*
X047645Y059540D01*
X047656Y059539D01*
X047667Y059539D01*
X047677Y059539D01*
X047686Y059539D01*
X047694Y059538D01*
X047701Y059538D01*
X047708Y059538D01*
X047714Y059538D01*
X047719Y059538D01*
X047723Y059537D01*
X047726Y059537D01*
X047729Y059537D01*
X047730Y059537D01*
X042893Y058565D02*
X044860Y059560D01*
X046213Y058507D02*
X048078Y059028D01*
X042916Y057593D02*
X045101Y058507D01*
X046751Y057534D02*
X047731Y058542D01*
X042916Y056551D02*
X045728Y057570D01*
X015464Y050546D02*
X014884Y050546D01*
X014884Y052060D01*
X026875Y052060D01*
X029869Y050531D01*
X040830Y074543D02*
X042187Y074543D01*
X042187Y076059D01*
X045330Y076059D01*
X045330Y075035D01*
X043177Y075035D01*
X043177Y068056D01*
X033697Y068056D01*
X033697Y071569D01*
X033097Y071569D01*
X025709Y075742D02*
G54D12*
X025709Y075319D03*
G54D21*
X025709Y075549D02*
X025407Y071003D02*
G54D13*
X025707Y071003D03*
G54D21*
X025534Y071003D02*
X025413Y069498D02*
G54D13*
X025713Y069498D03*
G54D21*
X025540Y069498D02*
X024906Y067871D02*
G54D13*
X025206Y067871D03*
G54D21*
X025032Y067871D02*
X026526Y067847D02*
G54D13*
X026826Y067848D03*
G54D21*
X026653Y067847D02*
X030924Y066528D02*
G54D13*
X031224Y066528D03*
G54D21*
X031051Y066528D02*
X030924Y068102D02*
G54D13*
X031224Y068102D03*
G54D21*
X031051Y068102D02*
X023532Y069509D02*
G54D13*
X023832Y069510D03*
G54D21*
X023659Y069509D02*
X023531Y071028D02*
G54D13*
X023831Y071028D03*
G54D21*
X023657Y071028D02*
X025407Y072669D02*
G54D13*
X025707Y072669D03*
G54D21*
X025534Y072669D02*
X025407Y073930D02*
G54D13*
X025707Y073931D03*
G54D21*
X025534Y073930D02*
X032822Y077222D02*
G54D13*
X033122Y077223D03*
G54D21*
X032949Y077222D02*
X042452Y077037D02*
G54D13*
X042752Y077037D03*
G54D21*
X042579Y077037D02*
X045832Y077037D02*
G54D13*
X046132Y077037D03*
G54D21*
X045958Y077037D02*
X047521Y077037D02*
G54D13*
X047821Y077037D03*
G54D21*
X047648Y077037D02*
X040554Y077014D02*
G54D13*
X040854Y077014D03*
G54D21*
X040681Y077014D02*
X030947Y077222D02*
G54D13*
X031247Y077223D03*
G54D21*
X031074Y077222D02*
X023563Y076875D02*
G54D13*
X023863Y076875D03*
G54D21*
X023690Y076875D02*
X021827Y076829D02*
G54D13*
X022127Y076829D03*
G54D21*
X021954Y076829D02*
X018980Y076829D02*
G54D13*
X019280Y076829D03*
G54D21*
X019106Y076829D02*
X018980Y075185D02*
G54D13*
X019280Y075185D03*
G54D21*
X019107Y075185D02*
X018957Y066574D02*
G54D13*
X019257Y066574D03*
G54D21*
X019083Y066574D02*
X018933Y064954D02*
G54D13*
X019233Y064954D03*
G54D21*
X019060Y064954D02*
X034674Y057084D02*
G54D13*
X034974Y057084D03*
G54D21*
X034801Y057084D02*
X032336Y055556D02*
G54D13*
X032636Y055556D03*
G54D21*
X032463Y055556D02*
X030739Y055556D02*
G54D13*
X031039Y055556D03*
G54D21*
X030866Y055556D02*
X016937Y055573D02*
G54D13*
X017237Y055573D03*
G54D21*
X017064Y055573D02*
X010016Y057564D02*
G54D13*
X010316Y057564D03*
G54D21*
X010142Y057564D02*
X016920Y057205D02*
G54D13*
X017220Y057205D03*
G54D21*
X017046Y057205D02*
X010019Y058820D02*
G54D13*
X010319Y058820D03*
G54D21*
X010146Y058820D02*
X036572Y057107D02*
G54D13*
X036872Y057107D03*
G54D21*
X036699Y057107D02*
X040062Y049080D02*
G54D13*
X040362Y049080D03*
G54D21*
X040189Y049080D02*
X041422Y049074D02*
G54D13*
X041722Y049074D03*
G54D21*
X041549Y049074D02*
X046451Y057534D02*
G54D13*
X046751Y057534D03*
G54D21*
X046578Y057534D02*
X045913Y058507D02*
G54D13*
X046213Y058507D03*
G54D21*
X046040Y058507D02*
X044801Y058507D02*
G54D13*
X045101Y058507D03*
G54D21*
X044928Y058507D02*
X044801Y060592D02*
G54D13*
X045101Y060592D03*
G54D21*
X044928Y060592D02*
X045913Y060592D02*
G54D13*
X046213Y060592D03*
G54D21*
X046040Y060592D02*
X045832Y059584D02*
G54D13*
X046132Y059584D03*
G54D21*
X045959Y059584D02*
X045370Y061552D02*
G54D13*
X045670Y061552D03*
G54D21*
X045496Y061552D02*
X046411Y061552D02*
G54D13*
X046711Y061552D03*
G54D21*
X046538Y061552D02*
X042753Y064306D02*
G54D13*
X043053Y064306D03*
G54D21*
X042880Y064306D02*
X041248Y064329D02*
G54D13*
X041548Y064329D03*
G54D21*
X041375Y064329D02*
X044559Y059560D02*
G54D13*
X044859Y059560D03*
G54D21*
X044685Y059560D02*
X045427Y057570D02*
G54D13*
X045727Y057570D03*
G54D21*
X045553Y057570D02*
X014954Y066525D02*
G54D14*
X014704Y066525D03*
G54D21*
X014823Y066525D02*
X018093Y066525D02*
G54D14*
X017843Y066525D03*
G54D21*
X017962Y066525D02*
X014954Y065525D02*
G54D14*
X014704Y065525D03*
G54D21*
X014823Y065525D02*
X018093Y065525D02*
G54D14*
X017843Y065525D03*
G54D21*
X017962Y065525D02*
X014954Y064525D02*
G54D14*
X014704Y064525D03*
G54D21*
X014823Y064525D02*
X018093Y064525D02*
G54D14*
X017843Y064525D03*
G54D21*
X017962Y064525D02*
X014954Y063525D02*
G54D14*
X014704Y063524D03*
G54D21*
X014823Y063525D02*
X018093Y063525D02*
G54D14*
X017843Y063524D03*
G54D21*
X017962Y063525D02*
X014954Y062524D02*
G54D14*
X014704Y062524D03*
G54D21*
X014823Y062524D02*
X018093Y062524D02*
G54D14*
X017843Y062524D03*
G54D21*
X017962Y062524D02*
X014954Y061524D02*
G54D14*
X014704Y061524D03*
G54D21*
X014823Y061524D02*
X018093Y061524D02*
G54D14*
X017843Y061524D03*
G54D21*
X017962Y061524D02*
X014954Y060524D02*
G54D14*
X014704Y060524D03*
G54D21*
X014823Y060524D02*
X018093Y060524D02*
G54D14*
X017843Y060524D03*
G54D21*
X017962Y060524D02*
X012577Y055548D02*
G54D14*
X012327Y055548D03*
G54D21*
X012445Y055548D02*
X015716Y055548D02*
G54D14*
X015466Y055548D03*
G54D21*
X015584Y055548D02*
X012577Y054547D02*
G54D14*
X012327Y054547D03*
G54D21*
X012445Y054547D02*
X015716Y054547D02*
G54D14*
X015466Y054547D03*
G54D21*
X015584Y054547D02*
X012577Y053547D02*
G54D14*
X012327Y053547D03*
G54D21*
X012445Y053547D02*
X015716Y053547D02*
G54D14*
X015466Y053547D03*
G54D21*
X015584Y053547D02*
X012577Y052547D02*
G54D14*
X012327Y052547D03*
G54D21*
X012445Y052547D02*
X015716Y052547D02*
G54D14*
X015466Y052547D03*
G54D21*
X015584Y052547D02*
X012577Y051547D02*
G54D14*
X012327Y051546D03*
G54D21*
X012445Y051547D02*
X015716Y051547D02*
G54D14*
X015466Y051546D03*
G54D21*
X015584Y051547D02*
X012577Y050546D02*
G54D14*
X012327Y050546D03*
G54D21*
X012445Y050546D02*
X015716Y050546D02*
G54D14*
X015466Y050546D03*
G54D21*
X015584Y050546D02*
X012577Y049546D02*
G54D14*
X012327Y049546D03*
G54D21*
X012445Y049546D02*
X015716Y049546D02*
G54D14*
X015466Y049546D03*
G54D21*
X015584Y049546D02*
X012577Y048573D02*
G54D14*
X012327Y048573D03*
G54D21*
X012445Y048573D02*
X015716Y048573D02*
G54D14*
X015466Y048573D03*
G54D21*
X015584Y048573D02*
X020974Y066539D02*
G54D14*
X020724Y066539D03*
G54D21*
X020842Y066539D02*
X024113Y066539D02*
G54D14*
X023863Y066539D03*
G54D21*
X023981Y066539D02*
X020974Y065538D02*
G54D14*
X020724Y065538D03*
G54D21*
X020842Y065538D02*
X024113Y065538D02*
G54D14*
X023863Y065538D03*
G54D21*
X023981Y065538D02*
X020974Y064538D02*
G54D14*
X020724Y064538D03*
G54D21*
X020842Y064538D02*
X024113Y064538D02*
G54D14*
X023863Y064538D03*
G54D21*
X023981Y064538D02*
X020974Y063538D02*
G54D14*
X020724Y063538D03*
G54D21*
X020842Y063538D02*
X024113Y063538D02*
G54D14*
X023863Y063538D03*
G54D21*
X023981Y063538D02*
X020974Y062538D02*
G54D14*
X020724Y062537D03*
G54D21*
X020842Y062538D02*
X024113Y062538D02*
G54D14*
X023863Y062537D03*
G54D21*
X023981Y062538D02*
X020974Y061537D02*
G54D14*
X020724Y061537D03*
G54D21*
X020842Y061537D02*
X024113Y061537D02*
G54D14*
X023863Y061537D03*
G54D21*
X023981Y061537D02*
X020974Y060537D02*
G54D14*
X020724Y060537D03*
G54D21*
X020842Y060537D02*
X024113Y060537D02*
G54D14*
X023863Y060537D03*
G54D21*
X023981Y060537D02*
X020974Y059564D02*
G54D14*
X020724Y059564D03*
G54D21*
X020842Y059564D02*
X024113Y059564D02*
G54D14*
X023863Y059564D03*
G54D21*
X023981Y059564D02*
X026968Y066543D02*
G54D14*
X026718Y066543D03*
G54D21*
X026836Y066543D02*
X030107Y066543D02*
G54D14*
X029857Y066543D03*
G54D21*
X029975Y066543D02*
X026968Y065543D02*
G54D14*
X026718Y065543D03*
G54D21*
X026836Y065543D02*
X030107Y065543D02*
G54D14*
X029857Y065543D03*
G54D21*
X029975Y065543D02*
X026968Y064543D02*
G54D14*
X026718Y064542D03*
G54D21*
X026836Y064543D02*
X030107Y064543D02*
G54D14*
X029857Y064542D03*
G54D21*
X029975Y064543D02*
X026968Y063542D02*
G54D14*
X026718Y063542D03*
G54D21*
X026836Y063542D02*
X030107Y063542D02*
G54D14*
X029857Y063542D03*
G54D21*
X029975Y063542D02*
X026968Y062542D02*
G54D14*
X026718Y062542D03*
G54D21*
X026836Y062542D02*
X030107Y062542D02*
G54D14*
X029857Y062542D03*
G54D21*
X029975Y062542D02*
X026968Y061542D02*
G54D14*
X026718Y061541D03*
G54D21*
X026836Y061542D02*
X030107Y061542D02*
G54D14*
X029857Y061541D03*
G54D21*
X029975Y061542D02*
X026968Y060541D02*
G54D14*
X026718Y060541D03*
G54D21*
X026836Y060541D02*
X030107Y060541D02*
G54D14*
X029857Y060541D03*
G54D21*
X029975Y060541D02*
X030210Y075570D02*
G54D14*
X029960Y075570D03*
G54D21*
X030078Y075570D02*
X033349Y075570D02*
G54D14*
X033099Y075570D03*
G54D21*
X033217Y075570D02*
X030210Y074570D02*
G54D14*
X029960Y074570D03*
G54D21*
X030078Y074570D02*
X033349Y074570D02*
G54D14*
X033099Y074570D03*
G54D21*
X033217Y074570D02*
X030210Y073569D02*
G54D14*
X029960Y073569D03*
G54D21*
X030078Y073569D02*
X033349Y073569D02*
G54D14*
X033099Y073569D03*
G54D21*
X033217Y073569D02*
X030210Y072569D02*
G54D14*
X029960Y072569D03*
G54D21*
X030078Y072569D02*
X033349Y072569D02*
G54D14*
X033099Y072569D03*
G54D21*
X033217Y072569D02*
X030210Y071569D02*
G54D14*
X029960Y071569D03*
G54D21*
X030078Y071569D02*
X033349Y071569D02*
G54D14*
X033099Y071569D03*
G54D21*
X033217Y071569D02*
X030210Y070568D02*
G54D14*
X029960Y070568D03*
G54D21*
X030078Y070568D02*
X033349Y070568D02*
G54D14*
X033099Y070568D03*
G54D21*
X033217Y070568D02*
X030210Y069568D02*
G54D14*
X029960Y069568D03*
G54D21*
X030078Y069568D02*
X033349Y069568D02*
G54D14*
X033099Y069568D03*
G54D21*
X033217Y069568D02*
X037943Y075543D02*
G54D14*
X037693Y075543D03*
G54D21*
X037811Y075543D02*
X041082Y075543D02*
G54D14*
X040832Y075543D03*
G54D21*
X040950Y075543D02*
X037943Y074543D02*
G54D14*
X037693Y074543D03*
G54D21*
X037811Y074543D02*
X041082Y074543D02*
G54D14*
X040832Y074543D03*
G54D21*
X040950Y074543D02*
X037943Y073543D02*
G54D14*
X037693Y073543D03*
G54D21*
X037811Y073543D02*
X041082Y073543D02*
G54D14*
X040832Y073543D03*
G54D21*
X040950Y073543D02*
X037943Y072542D02*
G54D14*
X037693Y072542D03*
G54D21*
X037811Y072542D02*
X041082Y072542D02*
G54D14*
X040832Y072542D03*
G54D21*
X040950Y072542D02*
X037943Y071542D02*
G54D14*
X037693Y071542D03*
G54D21*
X037811Y071542D02*
X041082Y071542D02*
G54D14*
X040832Y071542D03*
G54D21*
X040950Y071542D02*
X037943Y070542D02*
G54D14*
X037693Y070542D03*
G54D21*
X037811Y070542D02*
X041082Y070542D02*
G54D14*
X040832Y070542D03*
G54D21*
X040950Y070542D02*
X037943Y069541D02*
G54D14*
X037693Y069541D03*
G54D21*
X037811Y069541D02*
X041082Y069541D02*
G54D14*
X040832Y069541D03*
G54D21*
X040950Y069541D02*
X044957Y075543D02*
G54D14*
X044707Y075543D03*
G54D21*
X044825Y075543D02*
X048096Y075543D02*
G54D14*
X047846Y075543D03*
G54D21*
X047964Y075543D02*
X044957Y074543D02*
G54D14*
X044707Y074543D03*
G54D21*
X044825Y074543D02*
X048096Y074543D02*
G54D14*
X047846Y074543D03*
G54D21*
X047964Y074543D02*
X044957Y073543D02*
G54D14*
X044707Y073543D03*
G54D21*
X044825Y073543D02*
X048096Y073543D02*
G54D14*
X047846Y073543D03*
G54D21*
X047964Y073543D02*
X044957Y072542D02*
G54D14*
X044707Y072542D03*
G54D21*
X044825Y072542D02*
X048096Y072542D02*
G54D14*
X047846Y072542D03*
G54D21*
X047964Y072542D02*
X044957Y071542D02*
G54D14*
X044707Y071542D03*
G54D21*
X044825Y071542D02*
X048096Y071542D02*
G54D14*
X047846Y071542D03*
G54D21*
X047964Y071542D02*
X044957Y070542D02*
G54D14*
X044707Y070542D03*
G54D21*
X044825Y070542D02*
X048096Y070542D02*
G54D14*
X047846Y070542D03*
G54D21*
X047964Y070542D02*
X044957Y069541D02*
G54D14*
X044707Y069541D03*
G54D21*
X044825Y069541D02*
X048096Y069541D02*
G54D14*
X047846Y069541D03*
G54D21*
X047964Y069541D02*
X034008Y055566D02*
G54D14*
X033758Y055566D03*
G54D21*
X033876Y055566D02*
X037146Y055566D02*
G54D14*
X036897Y055566D03*
G54D21*
X037015Y055566D02*
X034008Y054566D02*
G54D14*
X033758Y054566D03*
G54D21*
X033876Y054566D02*
X037146Y054566D02*
G54D14*
X036897Y054566D03*
G54D21*
X037015Y054566D02*
X034008Y053566D02*
G54D14*
X033758Y053566D03*
G54D21*
X033876Y053566D02*
X037146Y053566D02*
G54D14*
X036897Y053566D03*
G54D21*
X037015Y053566D02*
X034008Y052566D02*
G54D14*
X033758Y052565D03*
G54D21*
X033876Y052566D02*
X037146Y052566D02*
G54D14*
X036897Y052565D03*
G54D21*
X037015Y052566D02*
X034008Y051565D02*
G54D14*
X033758Y051565D03*
G54D21*
X033876Y051565D02*
X037146Y051565D02*
G54D14*
X036897Y051565D03*
G54D21*
X037015Y051565D02*
X034008Y050565D02*
G54D14*
X033758Y050565D03*
G54D21*
X033876Y050565D02*
X037146Y050565D02*
G54D14*
X036897Y050565D03*
G54D21*
X037015Y050565D02*
X034008Y049565D02*
G54D14*
X033758Y049564D03*
G54D21*
X033876Y049565D02*
X037146Y049565D02*
G54D14*
X036897Y049564D03*
G54D21*
X037015Y049565D02*
X026982Y055533D02*
G54D14*
X026732Y055533D03*
G54D21*
X026850Y055533D02*
X030121Y055533D02*
G54D14*
X029871Y055533D03*
G54D21*
X029989Y055533D02*
X026982Y054532D02*
G54D14*
X026732Y054532D03*
G54D21*
X026850Y054532D02*
X030121Y054532D02*
G54D14*
X029871Y054532D03*
G54D21*
X029989Y054532D02*
X026982Y053532D02*
G54D14*
X026732Y053532D03*
G54D21*
X026850Y053532D02*
X030121Y053532D02*
G54D14*
X029871Y053532D03*
G54D21*
X029989Y053532D02*
X026982Y052532D02*
G54D14*
X026732Y052532D03*
G54D21*
X026850Y052532D02*
X030121Y052532D02*
G54D14*
X029871Y052532D03*
G54D21*
X029989Y052532D02*
X026982Y051531D02*
G54D14*
X026732Y051531D03*
G54D21*
X026850Y051531D02*
X030121Y051531D02*
G54D14*
X029871Y051531D03*
G54D21*
X029989Y051531D02*
X026982Y050531D02*
G54D14*
X026732Y050531D03*
G54D21*
X026850Y050531D02*
X030121Y050531D02*
G54D14*
X029871Y050531D03*
G54D21*
X029989Y050531D02*
X026982Y049531D02*
G54D14*
X026732Y049531D03*
G54D21*
X026850Y049531D02*
X030121Y049531D02*
G54D14*
X029871Y049531D03*
G54D21*
X029989Y049531D02*
X026968Y059568D02*
G54D14*
X026718Y059568D03*
G54D21*
X026836Y059568D02*
X030107Y059568D02*
G54D14*
X029857Y059568D03*
G54D21*
X029975Y059568D02*
X040022Y062550D02*
G54D14*
X039772Y062550D03*
G54D21*
X039890Y062550D02*
X043161Y062550D02*
G54D14*
X042911Y062550D03*
G54D21*
X043029Y062550D02*
X040022Y061550D02*
G54D14*
X039772Y061550D03*
G54D21*
X039890Y061550D02*
X043161Y061550D02*
G54D14*
X042911Y061550D03*
G54D21*
X043029Y061550D02*
X040022Y060549D02*
G54D14*
X039772Y060549D03*
G54D21*
X039890Y060549D02*
X043161Y060549D02*
G54D14*
X042911Y060549D03*
G54D21*
X043029Y060549D02*
X040022Y059549D02*
G54D14*
X039772Y059549D03*
G54D21*
X039890Y059549D02*
X043161Y059549D02*
G54D14*
X042911Y059549D03*
G54D21*
X043029Y059549D02*
X040022Y058549D02*
G54D14*
X039772Y058549D03*
G54D21*
X039890Y058549D02*
X043161Y058549D02*
G54D14*
X042911Y058549D03*
G54D21*
X043029Y058549D02*
X040022Y057549D02*
G54D14*
X039772Y057548D03*
G54D21*
X039890Y057549D02*
X043161Y057549D02*
G54D14*
X042911Y057548D03*
G54D21*
X043029Y057549D02*
X040022Y056548D02*
G54D14*
X039772Y056548D03*
G54D21*
X039890Y056548D02*
X043161Y056548D02*
G54D14*
X042911Y056548D03*
G54D21*
X043029Y056548D02*
X040022Y055575D02*
G54D14*
X039772Y055575D03*
G54D21*
X039890Y055575D02*
X043161Y055575D02*
G54D14*
X042911Y055575D03*
G54D21*
X043029Y055575D02*
X040022Y054566D02*
G54D14*
X039772Y054566D03*
G54D21*
X039890Y054566D02*
X043161Y054566D02*
G54D14*
X042911Y054566D03*
G54D21*
X043029Y054566D02*
X040022Y053566D02*
G54D14*
X039772Y053566D03*
G54D21*
X039890Y053566D02*
X043161Y053566D02*
G54D14*
X042911Y053566D03*
G54D21*
X043029Y053566D02*
X014967Y075562D02*
G54D14*
X014717Y075562D03*
G54D21*
X014836Y075562D02*
X018106Y075562D02*
G54D14*
X017856Y075562D03*
G54D21*
X017974Y075562D02*
X014967Y074562D02*
G54D14*
X014717Y074562D03*
G54D21*
X014836Y074562D02*
X018106Y074562D02*
G54D14*
X017856Y074562D03*
G54D21*
X017974Y074562D02*
X014967Y073561D02*
G54D14*
X014717Y073561D03*
G54D21*
X014836Y073561D02*
X018106Y073561D02*
G54D14*
X017856Y073561D03*
G54D21*
X017974Y073561D02*
X014967Y072561D02*
G54D14*
X014717Y072561D03*
G54D21*
X014836Y072561D02*
X018106Y072561D02*
G54D14*
X017856Y072561D03*
G54D21*
X017974Y072561D02*
X014967Y071561D02*
G54D14*
X014717Y071561D03*
G54D21*
X014836Y071561D02*
X018106Y071561D02*
G54D14*
X017856Y071561D03*
G54D21*
X017974Y071561D02*
X014967Y070561D02*
G54D14*
X014717Y070560D03*
G54D21*
X014836Y070561D02*
X018106Y070561D02*
G54D14*
X017856Y070560D03*
G54D21*
X017974Y070561D02*
X014967Y069560D02*
G54D14*
X014717Y069560D03*
G54D21*
X014836Y069560D02*
X018106Y069560D02*
G54D14*
X017856Y069560D03*
G54D21*
X017974Y069560D02*
X010209Y066347D02*
G54D15*
X009984Y066347D03*
G54D21*
X010102Y066347D02*
X010209Y065351D02*
G54D15*
X009984Y065351D03*
G54D21*
X010102Y065351D02*
X010209Y064356D02*
G54D15*
X009984Y064356D03*
G54D21*
X010102Y064356D02*
X010198Y063349D02*
G54D15*
X009973Y063349D03*
G54D21*
X010091Y063349D02*
X010198Y062353D02*
G54D15*
X009973Y062353D03*
G54D21*
X010091Y062353D02*
X010559Y065844D02*
G54D16*
X010334Y065844D03*
G54D21*
X010452Y065844D02*
X011217Y067027D02*
G54D17*
X010717Y067027D03*
G54D21*
X011114Y067027D02*
X010559Y064849D02*
G54D16*
X010334Y064849D03*
G54D21*
X010452Y064849D02*
X010559Y063853D02*
G54D16*
X010334Y063853D03*
G54D21*
X010452Y063853D02*
X010548Y062846D02*
G54D15*
X010323Y062846D03*
G54D21*
X010441Y062846D02*
X010548Y061851D02*
G54D15*
X010323Y061851D03*
G54D21*
X010441Y061851D02*
X047952Y060513D02*
G54D15*
X047727Y060513D03*
G54D21*
X047845Y060513D02*
X047952Y059518D02*
G54D15*
X047727Y059518D03*
G54D21*
X047845Y059518D02*
X047952Y058522D02*
G54D15*
X047727Y058522D03*
G54D21*
X047845Y058522D02*
X047941Y057515D02*
G54D15*
X047716Y057515D03*
G54D21*
X047834Y057515D02*
X047941Y056520D02*
G54D15*
X047716Y056520D03*
G54D21*
X047834Y056520D02*
X048302Y060011D02*
G54D16*
X048077Y060011D03*
G54D21*
X048195Y060011D02*
X048960Y061193D02*
G54D17*
X048460Y061193D03*
G54D21*
X048857Y061193D02*
X048302Y059016D02*
G54D16*
X048077Y059016D03*
G54D21*
X048195Y059016D02*
X048302Y058020D02*
G54D16*
X048077Y058020D03*
G54D21*
X048195Y058020D02*
X048291Y057013D02*
G54D15*
X048066Y057013D03*
G54D21*
X048184Y057013D02*
X048291Y056018D02*
G54D15*
X048066Y056018D03*
G54D21*
X048184Y056018D02*
X011923Y075559D02*
G54D13*
X012223Y075559D03*
G54D21*
X012050Y075559D02*
X009721Y075579D02*
G54D13*
X010021Y075579D03*
G54D21*
X009847Y075579D02*
X010043Y074010D02*
G54D12*
X010043Y073587D03*
G54D21*
X010043Y073817D02*
X010034Y072005D02*
G54D18*
X010034Y071582D03*
G54D21*
X010034Y071812D02*
X048490Y080767D02*
G54D19*
X049140Y080767D03*
G54D21*
X048598Y080767D02*
X048508Y046235D02*
G54D20*
X049158Y046236D03*
G54D21*
X048616Y046235D02*
X004502Y080790D02*
G54D19*
X005152Y080790D03*
G54D21*
X004610Y080790D02*
X004508Y046224D02*
G54D20*
X005158Y046224D03*
G54D21*
X004615Y046224D02*
X012184Y074005D02*
G54D12*
X012184Y073581D03*
G54D21*
X012184Y073812D02*
X025709Y077410D02*
G54D12*
X025709Y076987D03*
G54D21*
X025709Y077218D02*
X012175Y071999D02*
G54D18*
X012175Y071576D03*
G54D21*
X012175Y071807D02*
X011874Y069496D02*
G54D13*
X012174Y069496D03*
G54D21*
X012000Y069496D02*
X009721Y069467D02*
G54D13*
X010021Y069467D03*
G54D21*
X009847Y069467D02*
X020946Y075551D02*
G54D14*
X020696Y075550D03*
G54D21*
X020814Y075551D02*
X024085Y075551D02*
G54D14*
X023835Y075550D03*
G54D21*
X023953Y075551D02*
X020946Y074550D02*
G54D14*
X020696Y074550D03*
G54D21*
X020814Y074550D02*
X024085Y074550D02*
G54D14*
X023835Y074550D03*
G54D21*
X023953Y074550D02*
X020946Y073550D02*
G54D14*
X020696Y073550D03*
G54D21*
X020814Y073550D02*
X024085Y073550D02*
G54D14*
X023835Y073550D03*
G54D21*
X023953Y073550D02*
X020946Y072550D02*
G54D14*
X020696Y072550D03*
G54D21*
X020814Y072550D02*
X024085Y072550D02*
G54D14*
X023835Y072550D03*
G54D21*
X023953Y072550D02*
M02*